<mxfile host="Electron" agent="Mozilla/5.0 (X11; Linux x86_64) AppleWebKit/537.36 (KHTML, like Gecko) draw.io/28.1.2 Chrome/138.0.7204.243 Electron/37.4.0 Safari/537.36" version="28.1.2">
  <diagram name="Page-1" id="YH6CoolbgTtlgTintEW7">
    <mxGraphModel dx="1358" dy="833" grid="1" gridSize="10" guides="1" tooltips="1" connect="1" arrows="1" fold="1" page="1" pageScale="1" pageWidth="3200" pageHeight="1400" math="0" shadow="0">
      <root>
        <mxCell id="0" />
        <mxCell id="1" parent="0" />
        <mxCell id="FKWvUCUKL_jMdwj0c6j4-1" value="&lt;font style=&quot;font-size: 60px;&quot;&gt;&lt;b&gt;ROS2&lt;/b&gt;&lt;/font&gt;" style="rounded=0;whiteSpace=wrap;html=1;" parent="1" vertex="1">
          <mxGeometry x="440" y="370" width="490" height="170" as="geometry" />
        </mxCell>
        <mxCell id="o0T9aLo4qFn0XOpPlYbD-10" style="edgeStyle=orthogonalEdgeStyle;rounded=0;orthogonalLoop=1;jettySize=auto;html=1;entryX=0.25;entryY=0;entryDx=0;entryDy=0;" edge="1" parent="1" source="FKWvUCUKL_jMdwj0c6j4-2" target="FKWvUCUKL_jMdwj0c6j4-1">
          <mxGeometry relative="1" as="geometry" />
        </mxCell>
        <mxCell id="o0T9aLo4qFn0XOpPlYbD-12" value="Interaction with the ROS2 core" style="edgeLabel;html=1;align=center;verticalAlign=middle;resizable=0;points=[];" vertex="1" connectable="0" parent="o0T9aLo4qFn0XOpPlYbD-10">
          <mxGeometry x="-0.108" y="1" relative="1" as="geometry">
            <mxPoint as="offset" />
          </mxGeometry>
        </mxCell>
        <mxCell id="FKWvUCUKL_jMdwj0c6j4-2" value="&lt;b&gt;&lt;font style=&quot;font-size: 20px;&quot;&gt;rclpy&lt;/font&gt;&lt;/b&gt;" style="rounded=0;whiteSpace=wrap;html=1;" parent="1" vertex="1">
          <mxGeometry x="440" y="240" width="240" height="60" as="geometry" />
        </mxCell>
        <mxCell id="FKWvUCUKL_jMdwj0c6j4-8" value="" style="sketch=0;outlineConnect=0;fontColor=#232F3E;gradientColor=none;fillColor=#232F3D;strokeColor=none;dashed=0;verticalLabelPosition=bottom;verticalAlign=top;align=center;html=1;fontSize=12;fontStyle=0;aspect=fixed;pointerEvents=1;shape=mxgraph.aws4.source_code;" parent="1" vertex="1">
          <mxGeometry x="470" y="119" width="57" height="78" as="geometry" />
        </mxCell>
        <mxCell id="o0T9aLo4qFn0XOpPlYbD-1" value="" style="shape=image;verticalLabelPosition=bottom;labelBackgroundColor=default;verticalAlign=top;aspect=fixed;imageAspect=0;editableCssRules=.*;image=data:image/svg+xml,PHN2ZyB4bWxucz0iaHR0cDovL3d3dy53My5vcmcvMjAwMC9zdmciIGZpbGw9Im5vbmUiIHZpZXdCb3g9IjIgMiAyNy45OTk3OTk3MjgzOTM1NTUgMjgiIGhlaWdodD0iNzAwIiB3aWR0aD0iNjk5Ljk5NDk5MzIwOTgzODkiPiYjeGE7PHBhdGggZmlsbD0idXJsKCNwYWludDBfbGluZWFyXzg3XzgyMDQpIiBkPSJNMTMuMDE2NCAyQzEwLjgxOTMgMiA5LjAzODI1IDMuNzI0NTMgOS4wMzgyNSA1Ljg1MTg1VjguNTE4NTJIMTUuOTIzNVY5LjI1OTI2SDUuOTc4MTRDMy43ODEwNyA5LjI1OTI2IDIgMTAuOTgzOCAyIDEzLjExMTFMMiAxOC44ODg5QzIgMjEuMDE2MiAzLjc4MTA3IDIyLjc0MDcgNS45NzgxNCAyMi43NDA3SDguMjczMjJWMTkuNDgxNUM4LjI3MzIyIDE3LjM1NDIgMTAuMDU0MyAxNS42Mjk2IDEyLjI1MTQgMTUuNjI5NkgxOS41OTU2QzIxLjQ1NDcgMTUuNjI5NiAyMi45NjE3IDE0LjE3MDQgMjIuOTYxNyAxMi4zNzA0VjUuODUxODVDMjIuOTYxNyAzLjcyNDUzIDIxLjE4MDcgMiAxOC45ODM2IDJIMTMuMDE2NFpNMTIuMDk4NCA2Ljc0MDc0QzEyLjg1ODkgNi43NDA3NCAxMy40NzU0IDYuMTQzNzggMTMuNDc1NCA1LjQwNzQxQzEzLjQ3NTQgNC42NzEwMyAxMi44NTg5IDQuMDc0MDcgMTIuMDk4NCA0LjA3NDA3QzExLjMzNzggNC4wNzQwNyAxMC43MjEzIDQuNjcxMDMgMTAuNzIxMyA1LjQwNzQxQzEwLjcyMTMgNi4xNDM3OCAxMS4zMzc4IDYuNzQwNzQgMTIuMDk4NCA2Ljc0MDc0WiIgY2xpcC1ydWxlPSJldmVub2RkIiBmaWxsLXJ1bGU9ImV2ZW5vZGQiLz4mI3hhOzxwYXRoIGZpbGw9InVybCgjcGFpbnQxX2xpbmVhcl84N184MjA0KSIgZD0iTTE4Ljk4MzQgMzBDMjEuMTgwNSAzMCAyMi45NjE2IDI4LjI3NTUgMjIuOTYxNiAyNi4xNDgyVjIzLjQ4MTVMMTYuMDc2MyAyMy40ODE1TDE2LjA3NjMgMjIuNzQwOEwyNi4wMjE3IDIyLjc0MDhDMjguMjE4OCAyMi43NDA4IDI5Ljk5OTggMjEuMDE2MiAyOS45OTk4IDE4Ljg4ODlWMTMuMTExMUMyOS45OTk4IDEwLjk4MzggMjguMjE4OCA5LjI1OTI4IDI2LjAyMTcgOS4yNTkyOEwyMy43MjY2IDkuMjU5MjhWMTIuNTE4NUMyMy43MjY2IDE0LjY0NTkgMjEuOTQ1NSAxNi4zNzA0IDE5Ljc0ODUgMTYuMzcwNEwxMi40MDQyIDE2LjM3MDRDMTAuNTQ1MSAxNi4zNzA0IDkuMDM4MDkgMTcuODI5NiA5LjAzODA5IDE5LjYyOTZMOS4wMzgwOSAyNi4xNDgyQzkuMDM4MDkgMjguMjc1NSAxMC44MTkyIDMwIDEzLjAxNjIgMzBIMTguOTgzNFpNMTkuOTAxNSAyNS4yNTkzQzE5LjE0MDkgMjUuMjU5MyAxOC41MjQ0IDI1Ljg1NjIgMTguNTI0NCAyNi41OTI2QzE4LjUyNDQgMjcuMzI5IDE5LjE0MDkgMjcuOTI1OSAxOS45MDE1IDI3LjkyNTlDMjAuNjYyIDI3LjkyNTkgMjEuMjc4NSAyNy4zMjkgMjEuMjc4NSAyNi41OTI2QzIxLjI3ODUgMjUuODU2MiAyMC42NjIgMjUuMjU5MyAxOS45MDE1IDI1LjI1OTNaIiBjbGlwLXJ1bGU9ImV2ZW5vZGQiIGZpbGwtcnVsZT0iZXZlbm9kZCIvPiYjeGE7PGRlZnM+JiN4YTs8bGluZWFyR3JhZGllbnQgZ3JhZGllbnRVbml0cz0idXNlclNwYWNlT25Vc2UiIHkyPSIyMi43NDA3IiB4Mj0iMTIuNDgwOSIgeTE9IjIiIHgxPSIxMi40ODA5IiBpZD0icGFpbnQwX2xpbmVhcl84N184MjA0Ij4mI3hhOzxzdG9wIHN0b3AtY29sb3I9IiMzMjdFQkQiLz4mI3hhOzxzdG9wIHN0b3AtY29sb3I9IiMxNTY1QTciIG9mZnNldD0iMSIvPiYjeGE7PC9saW5lYXJHcmFkaWVudD4mI3hhOzxsaW5lYXJHcmFkaWVudCBncmFkaWVudFVuaXRzPSJ1c2VyU3BhY2VPblVzZSIgeTI9IjMwIiB4Mj0iMTkuNTE5IiB5MT0iOS4yNTkyOCIgeDE9IjE5LjUxOSIgaWQ9InBhaW50MV9saW5lYXJfODdfODIwNCI+JiN4YTs8c3RvcCBzdG9wLWNvbG9yPSIjRkZEQTRCIi8+JiN4YTs8c3RvcCBzdG9wLWNvbG9yPSIjRjlDNjAwIiBvZmZzZXQ9IjEiLz4mI3hhOzwvbGluZWFyR3JhZGllbnQ+JiN4YTs8L2RlZnM+JiN4YTs8L3N2Zz4=;" vertex="1" parent="1">
          <mxGeometry x="450" y="90" width="50" height="50" as="geometry" />
        </mxCell>
        <mxCell id="o0T9aLo4qFn0XOpPlYbD-11" style="edgeStyle=orthogonalEdgeStyle;rounded=0;orthogonalLoop=1;jettySize=auto;html=1;entryX=0.75;entryY=0;entryDx=0;entryDy=0;" edge="1" parent="1" source="o0T9aLo4qFn0XOpPlYbD-3" target="FKWvUCUKL_jMdwj0c6j4-1">
          <mxGeometry relative="1" as="geometry" />
        </mxCell>
        <mxCell id="o0T9aLo4qFn0XOpPlYbD-13" value="Interaction with the same ROS2 core" style="edgeLabel;html=1;align=center;verticalAlign=middle;resizable=0;points=[];" vertex="1" connectable="0" parent="o0T9aLo4qFn0XOpPlYbD-11">
          <mxGeometry x="-0.1234" y="-1" relative="1" as="geometry">
            <mxPoint as="offset" />
          </mxGeometry>
        </mxCell>
        <mxCell id="o0T9aLo4qFn0XOpPlYbD-3" value="&lt;b&gt;&lt;font style=&quot;font-size: 20px;&quot;&gt;rclcpp&lt;/font&gt;&lt;/b&gt;" style="rounded=0;whiteSpace=wrap;html=1;" vertex="1" parent="1">
          <mxGeometry x="690" y="240" width="240" height="60" as="geometry" />
        </mxCell>
        <mxCell id="o0T9aLo4qFn0XOpPlYbD-4" value="" style="shape=image;verticalLabelPosition=bottom;labelBackgroundColor=default;verticalAlign=top;aspect=fixed;imageAspect=0;image=data:image/png,iVBORw0KGgoAAAANSUhEUgAAA48AAAQCCAYAAAAM4M2HAAAABGdBTUEAALGPC/xhBQAAACBjSFJNAAB6JgAAgIQAAPoAAACA6AAAdTAAAOpgAAA6mAAAF3CculE8AAAABmJLR0QA/wD/AP+gvaeTAAAAB3RJTUUH6QYFAgovF7vkxQAAgABJREFUeNrs3XeYnGWh/vH7mbK9b/qmd9ILAZKYhCZgARvEBiqpQJTiEfQIaiwoiFKkpQGC4s8jtqOUIKGkkZC6u9m0Tdkk27O9zO5Oe5/fH6gHlZKyZcr3c13nOgLJ7sz9zs6+9zzNCACAGHbTo3v7hTzBkY7LDJc00OWY3pJ6OS71Mtb2M9ZkWKMESal//yuZklySHElNf/93PmMVkNTkuFTtclRrjWqssbWSyqxxHzHWHl6zeGI1iQMAYpUhAgBALLjxscLskEfTJU2X0XRZjZY0QlJaNz6MVskelkyxsdpprN3pT3R2/vL6qY1cIQAA5REAgB6waHXBMGPNpZIuknTe34tipDosabux9jWX46xbcePUY1xBAADlEQCALnDb/W8mt6alftRYc5mkS63R8Ch+OkckrZPMy2mtLWsf+Pqsdq4wAIDyCADAGfraLw4ltiW0XeZy6RrJfFJSegw+zXbJvmqseSbRn/yXh28e5efKAwAojwAAnIJFq/dMcjl2mTWaLykrjp56o6T/MVaPrlo6aQ+vBAAA5REAgH+zfLl1lfYr/JjLZW6WdAm/o7TTGvsLlxP8f6uWnhvkFQIAoDwCAOLakpU7vNYkLjTWftsaDSKR/3DCWP1YCjxJiQQAUB4BAHFn+XLrqui/5zPWmLslO4pEPog9bo35cVPmgSeemz8/TB4AAMojACDmLV5V+BFj9VNrNIE0TvMXt1WRNbpj9ZJJL5EGAIDyCACISUtX7B7luN13y+oa0jhr6yTn1tVLpuwlCgAA5REAEBNuenRvWsgT+oY15luSEkmk0wStsY+HPM73fnn91EbiAABQHgEAUWn5cusqyyu81ljzU0l9SaTL1Ev2B41ZBx9hPSQAgPIIAIgqi1cVzpPsg5KZQhrdZr/k3LZ6yZSXiQIAQHkEAES0RasLBr59tIS5lt8zPcU+b41uXrN4cglZAAAojwCAiLJk5Y4UyXuHNeYOSckk0uMC1tgVjivxricXjm0hDgAA5REA0LOsNUtW7bnaGnufZIYQSMSpsEbfH1g+cc3y5cYhDgAA5REA0O0WrS6cbqx5ULIfIo2It10yt65eMvFNogAAUB4BAN1iycp9/aXQcmu0SJKLRKKGldHvjeP+xqql408QBwCA8ggA6KLSuMNrjfcmyfxAUgaJRC2fsfZngYSMe355/bAO4gAAUB4BAJ1m4YqCK10u84CkEaQRIzcBVqWOy961ZvHkZ0gDAEB5BACclSUrC8dao/slfYQ0YpV93RrXrWsWTywkCwAA5REAcFoWrtmbY2zoe8aamyR5SCTmOZJ91h3WN1bcOPkkcQAAKI8AgPe1fPnrnrK83AXG6keSepNI3GmQdG9jlvuB5+aPDxAHAIDyCAD4D0tXFFzivL2ucSJpxPkNgtVByfzXqqUTXyANAADlEQAgSVq4Zu9Ilw3/WFbXkAb+zTqX475l5Q3j9xEFAFAeAQBx6rpnClKT23W7NeZbkhJJBO8haI193OUEv7tq6blNxAEAlEcAQLyw1ixaU3idZO41Vv0IBKf0sjGqM9b+sDHr4CPPzZ8fJhEAoDwCAGLYwjX557kc10OSLiANnNHNg9Vux2VvWbN48kbSAADKIwAgxtzweH5e2G1+Iplref9H57DPu8PO11bcOPUYWQAA5REAEOVuu//N5Na0tJsl3SUpjUTQydol/cIbdP/osWXjW4kDACiPAIAotHBFwZUul/mFpKGkgS5Wbo399ppFk34lYyxxAADlEQAQBZasLJhmjXlQ0hzSQDffWmxzOfbWlTdM2kIWAEB5BABEqGWP7M/1Jwa+a6xZJslNIughVrK/9gY9dzy2bHwVcQAA5REAECGWrNzhtcZ7k2S+LymTRBAhfMbanwUSMu755fXDOogDACiPAIAetHhV4aWSHpI0jjQQoQ4bq2+vWjrpOaIAAMojAKCbLXiiYIw7bO6X9FHSQJR4zVjdumrppD1EAQCURwBAF7vxscLskEfflHSbpAQSQZQJGasng97QXU8tmFZDHABAeQQAdLLly62rLK/wWmPNzyT1JhFEuQbJfj+vov7R5csvChEHAFAeAQCdYMnKoouscR6UNIk0EGMOSPr66iWTXiIKAKA8AgDO0PVP7hnkCTl3S+Y60kBss88b67p11dKJR8gCACiPAIBTdN0zBanJ7brdGvNNSUkkgjgRtMY+ntye8p2Hbx7VTBwAQHkEALwXa82SVXuulvRzazSIQBCnKq3R8qbMA088N39+mDgAgPIIAHiHxauKZljjPGSsZpIGIEnaZaxzy6qlUzYRBQBQHgEg7i14YtcAd9h9j2Su5X0ZeDf2ecfl/eoTi8YdJwsAoDwCQNy57f43k1vT0m6WdKekdBIB3lebpIe9QfePHls2vpU4AIDyCABxYeGKgitdLvOQpGGkAZyWMmvsnWsWTfqVjLHEAQCURwCIzdK4Jn+qsa4HjdVc0gDOylvG2ltWLZ38FlEAAOURAGLGskf25/oTA9811iyT5CYRoFM4kn3WGtftaxZPrCYOAKA8AkDUWrJyh9ca702S+b6kTBIBukSrsfbnif6Unzx88yg/cQAA5REAosriVYWXSnpQ0njSALrltuaQsfbOVUsnPUcWAEB5BIAoKI35oyXzc8l8nDSA7meNXrXG3vrEoslFpAEAlEcAiDhfeWp3ljfo/pak2yQlkAjQo0LG6kkpcOeqpefWEgcAUB4BoMctX25dZXmF1xpr7pPUh0SAiFIv2R80Zh185Ln588PEAQCURwDoEYtW77nQWPugpMmkAUS0/S7Hfn3lDZPXEgUAUB4BoNtc/+SeQZ6Qc7dkriMNIJrY58Mec8uTCyYdJQsAoDwCQJdZsnJHiuS9wxrzTUlJJAJEpYA1dkVye8p3Hr55VDNxAADlEQA6j7Vmyao9V1ujn0kaTCBATKi0RssHlk9cs3y5cYgDACiPAHBWlq7Yc67jch6UzGzSAGKPNdphjevWJxZN2EwaAEB5BIDTtuCJXQM8Ic/3rNEiSS4SAWK7Q8ro98Zxf2PV0vEniAMAKI8A8IGu+d3ehKzG0I2S+YGkDBIB4kqbsfa+QELGPb+8flgHcQAA5REA3tXCFQVXuo150BoNJw0gjm+QrEodl71rzaJJv5IxlkQAgPIIAJKkRav3nGOsHpDs5aQB4B3ecDmuW1feMKGAKABQHgEgji1cszfH2ND3jDXLJLlJBMC7cCT7rDusb6y4cfJJ4gBAeQSAOLJ8+euesrzcBcaauyXbi0QAnIJGSfckdSQ/+PDNo/zEAYDyCAAxbumKgkvs2+saJ5AGgDNQLJn/Wr1k4vNEAYDyCAAxWRp3j3Lc7rtldQ1pAOgE6yTn1tVLpuwlCgCURwCIATc9ujct5Al9wxrzLUmJJAKgEwWtsY+7nOB3Vy09t4k4AFAeASAKLV9uXWV5hdcaa34qqS+JAOgq1qjOWPvDxqyDjzw3f36YRABQHgEgSixZWXC+NeYhSeeTBoBurJH5LsfcsvKGSRvIAgDlEQAi2KLVBQON1Y8lcy3vcQB6sEQ+b41uXrN4cglZAKA8AkAEWbJyR4o1CV+TdJekNBIBEAHaJf0i7E64+8mFY1uIAwDlEQB6krVmyao9V1tj75PMEAIBEIEqrNH3B5ZPXLN8uXGIAwDlEQC62aLVhdONNQ9K9kOkASAKbJfMrauXTHyTKABQHgGgGyxZua+/FFpujRZKcpMIgChiZfT7kNv811MLJpYSBwDKIwB0SWnc4bXGe5NkfiApg0QARDGfsfZngYSMe355/bAO4gBAeQSATrJwRcGVLpd5QNII0gAQMzdiVqWOy961ZvHkZ0gDAOURAM7CkpWFY63R/ZI+QhoAYpd93RrXrWsWTywkCwCURwA4DTc+Vpgd9NrlxpqbJHlIBEAccCT7rDusb6y4cfJJ4gBAeQSA97F8+euesrzcBcbqR5J6kwiAONQg6d7GLPcDz80fHyAOAJRHAPg3i1YXXPz20RuaSBoA4v4mzeqg49LX1yye9CJpAKA8AoCkhWv2jnTZ8I9ldQ1pAMB/WOdy3LesvGH8PqIAQHkEEJeue6YgNbldt1tjviUpkUQA4D0FrbGPu5zgd1ctPbeJOABQHgHEB2vNojWF10nmXmPVj0AA4BTfPo3qjLU/bMw6+Mhz8+eHSQQA5RFAzFq4Jv88l+N6SNIFpAEAZ2yXNfbWNYsnbyQKAJRHADHlhsfz88Ju8xPJXMt7DwB0Fvu8O+x8bcWNU4+RBQDKI4Codtv9bya3pqXdLOkuSWkkAgCdrl3SL7xB948eWza+lTgAUB4BRJ2FKwqudLnMLyQNJQ0A6HLl1thvr1k06VcyxhIHAMojgIi3ZGXBNGvMg5LmkAYAdPvt3TZrnFvWLJ68lSwAUB4BRKRlj+zP9ScGvmusWSbJTSIA0GOsZH/tDXrueGzZ+CriAEB5BBARlqzc4bXGe5Nkvi8pk0QAIGL4jLU/S/Sn/OThm0f5iQMA5RFAj1m8qvBSSQ9JGkcaABCxDhurb69aOuk5ogBAeQTQrRY8UTDGHTb3S/ooaQBA1HjNWN26aumkPUQBgPIIoEvd+Fhhdsijb0q6TVICiQBA1AkZqyeD3tBdTy2YVkMcACiPADrV8uXWVZZXeK2x5j5JfUgEAKJeg2S/n1dR/+jy5ReFiAMA5RHAWVuysugia5wHJU0iDQCIOQckfX31kkkvEQUAyiOAM3L9k3sGeULO3ZK5jjQAINbZ54113bpq6cQjZAGA8gjglFz3TEFqcrtut8Z8U1ISiQBA3AhaYx9Pbk/5zsM3j2omDgCURwDvzlqzZNWeq63RzyQNJhAAiFuV1mh5U+aBJ56bPz9MHAAojwD+afGqohmS86CkWaQBAPi7ncY6t65aOmUTUQCgPAJxbsETuwZ4Qp7vWaNFklwkAgD4N1ZGv3eM5/YnFo07ThwA5RFAnLnmd3sTshpDN0rmh5LSSQQA8AHajLX3pfp89z7w9VntxAFQHgHEgYUrCq50ucxDkoaRBgDgNJVZY+9cs2jSr2SMJQ6A8gggBi1etXeKNeGHjNVc0gAAnKW3jLW3rFo6+S2iACiPAGLEwjV7c4wNfc9Ys0ySm0QAAJ3Ekeyz1rhuX7N4YjVxAJRHAFFqycodXmu8N0lmuaQsEgEAdJFWY+3PE/0pP3n45lF+4gAojwCiyOJVhZdKelDSeNIAAHTTreUhY+2dq5ZOeo4sAMojgIgvjfmjJfNzyXycNAAAPWSd47K3PbFochFRAJRHABHmK0/tzvIG3d+SdKukRBIBAPSwkLF6UgrcuWrpubXEAVAeAfSw5cutqyyv8FpjzX2S+pAIACDC1Ev2B41ZBx95bv78MHEAlEcAPWDR6j0XGmsflDSZNAAAEW6/5Ny2esmUl4kCoDwC6LbSWDDQWP1YMtfycwwAiC72+bDH3PLkgklHyQKgPALoIktW7kiRvHdYY74pKYlEAABRKmCNXZHcnvKdh28e1UwcAOURQGex1ixZtedqa/QzSYMJBAAQIyqs0fcHlk9cs3y5cYgDoDwCOAuLVhdON9Y+JJnZpAEAiEXWaIex5pbVSya+SRoA5RHAaVqycl9/KbTcGi2S5CIRAECsd0gZ/d447m+sWjr+BHEAlEcAH+Ca3+1NyGoM3SiZH0jKIBEAQJxpM9beF0jIuOeX1w/rIA6A8gjgXSxcUXCl25gHrdFw0gAAxPVNqlWp47J3rVk8+RnSACiPAP5uycrCsY5LDxirK0gDAIB/8YbLcd268oYJBUQBUB6BuLVwzd4cY0PfM9bcJMlDIgAAvCtHss+6w/rGihsnnyQOgPIIxI3ly1/3lOXlLjDW3C3ZXiQCAMApaZR0T2OW+4Hn5o8PEAdAeQRi2tIVBZfYt9c1TiANAADOSLGx5uurlk58gSgAyiMQg6Vx9yjH7b5bVteQBgAAnWKd5Ny6esmUvUQBUB6BqHfTo3vTQp7QN6wx35KUSCIAAHSqoDX2cZcT/O6qpec2EQdAeQSizvLl1lWWV3itseankvqSCAAAXcca1Rlrf9iYdfCR5+bPD5MIQHkEosKSlQXnW2MelHQBaQAA0I03t1a7jdWtK2+YtIE0AMojELEWrS4YaKx+LJlr+fkCAKAn2eet0c1rFk8uIQuA8ghEjCUrd6RYk/A1SXdJSiMRAAAiQrukX4TdCXc/uXBsC3EAlEegRy1cUXCly6WHJTOENAAAiEgV1tj/XrNo0q9kjCUOgPIIdKslKwumWeN6SLIfIg0AAKLCdpejW1beMGkLUQCUR6AbSuOOXo7L+x1jzTJJbhIBACCqWMn+2hv03PHYsvFVxAFQHoGuKI1ea7w3SeYHkjJIBACAqOYz1v4skJBxzy+vH9ZBHADlEegUb69rNA9IGkEaAADElBPW2O+sWTz5GaIAKI/AGVvwRMEYd9g8IOkjpAEAQCyzr1vjunXN4omFZAFQHoFTduNjhdlBr11urLlJkodEAACIC45knw15wv/11IJpNcQBUB6B97R8+euesrzcBcbqR5J6kwgAAHGpQdK9jVnuB56bPz5AHADlEfgXi1YXXGyseVDSRNIAAADG6qDj0tfXLJ70ImkAlEdAC9fsHemy4R/L6hrSAAAA72Kdy3HfsvKG8fuIApRHIA5d90xBanK7brfGfFNSEokAAID3EbTGPu5ygt9dtfTcJuIA5RGIB9aaRWsKr5PMvcaqH4EAAIBTvo0wqjPW/rAx6+Ajz82fHyYRUB6BGLV4VdEMa5yHjNVM0gAAAGdhlzX21jWLJ28kClAegRhyw+P5eWG3+YlkruV1DwAAOo993h12vrbixqnHyAKURyCK3Xb/m8mtaWk3S7pTUjqJAACALtAm6WFv0P2jx5aNbyUOUB6BKLNwRcGVLpf5haShpAEAALpBuTX222sWTfqVjLHEAcojEOmlcU3+VGNdDxqruaQBAAB64BZ7mzXOLWsWT95KFqA8AhFo2SP7c/2Jge8aa5ZJcpMIAADoQVayv/YGPXc8tmx8FXGA8ghEgCUrd3it8d4kme9LyiQRAAAQQXzG2p8l+lN+8vDNo/zEAcoj0EMWryq8VNJDksaRBgAAiGCHjdW3Vy2d9BxRgPIIdGtpzB8tue6X9DHSAAAA0cIavepydNuqpZP2kAYoj0AXuvGxwuyQR9+UdJukBBIBAABRKGSsngx6Q3c9tWBaDXGA8gh0ouXLrassr/BaY819kvqQCAAAiAH1kv1BXkX9o8uXXxQiDlAegbO0ZGXRRdY4D0qaRBoAACAGHZD09dVLJr1EFKA8Amfg+if3DPKEnLslcx1pAACA2GefN9Z166qlE4+QBSiPwCm47pmC1OR23W6N+aakJBIBAABxJGiNfTy5PeU7D988qpk4QHkE3o21ZsmqPVdbo59JGkwgAAAgjlVao+UDyyeuWb7cOMQByiPwd0tX7DnXcdmHJM0iDQAAgH/aaaxz66qlUzYRBSiPiGsLntg1wBPyfM8aLZLkIhEAAID/YGX0e8d4bn9i0bjjxAHKI+LKNb/bm5DVGLpRMj+UlE4iAAAAH6jNWHtfqs937wNfn9VOHKA8IuYtXFFwpctlHpI0jDQAAABOW5k19s41iyb9SsZY4gDlETFn0eo95xirByR7OWkAAACctfWS+9bVS8bnEwUoj4gJC9fszTE29D1jzTJJbhIBAADoNI5kn7XGdfuaxROriQOUR0SlJSt3eB1XwvXGmrsl24tEAAAAukyjpHuSOpIffPjmUX7iAOURUWPxqsJLJT0oaTxpAAAAdNvt/SFj7Z2rlk56jixAeUREW7pi9yjH5bpfMh8nDQAAgB6zTnJuXb1kyl6iAOUREeUrT+3O8gbd35J0q6REEgEAAOhxQWP1lBS4c9XSc2uJA5RH9Kjly62rLK/wWmPNTyX1JREAAICIUy/ZHzRmHXzkufnzw8QByiO63eJVhfMk+6BkppAGAABAxNsvObetXjLlZaIA5RHdYtHqgoHG6seSuZbXEAAAQLSxz4c95pYnF0w6ShagPKJLLFm5I0Xy3mGNuUNSMokAAABErYA1doXjSrzryYVjW4gDlEd0DmvNklV7rrbG3ieZIQQCAAAQMyqs0fcHlk9cs3y5cYgDlEecsUWrC6cbax+SzGzSAAAAiE3WaIex5pbVSya+SRqgPOK0LFm5r78UWm6NFklykQgAAEDsd0gZ/d447m+sWjr+BHGA8oj3dc3v9iZkNYZulMwPJGWQCAAAQNxpM9beF0jIuOeX1w/rIA5QHvEfFq4ouNJtzIPWaDhpAAAAxHlRsCp1XPauNYsnP0MaoDxCkrRkZeFYx6UHjNUVpAEAAIB/84bLcd268oYJBURBeUScWrhmb46xoe8Za26S5CERAAAAvAdHss+6w/rGihsnnyQOyiPixPLlr3vK8nIXGGvulmwvEgEAAMApapR0T2OW+4Hn5o8PEAflETFs6YqCS+zb6xonkAYAAADOULGx5uurlk58gSgoj4i50rh7lON23y2ra0gDAAAAnWSd5Ny6esmUvURBeUSUu+6ZgtTkdt1ujfmWpEQSAQAAQCcLWmMfdznB765aem4TcVAeEWWWL7eusrzCa401P5XUl0QAAADQlaxRnbH2h41ZBx95bv78MIlQHhEFFq7JP8/luB6SdAFpAAAAoFsLhtVuY3XryhsmbSANyiMi1A2P5+eF3eYnkrmWawsAAICeZZ+3RjevWTy5hCwoj4gQS1buSLEm4WuS7pKURiIAAACIEO2SfhF2J9z95MKxLcRBeUQPWrii4EqXy/xC0lDSAAAAQIQqt8Z+e82iSb+SMZY4KI/oRktWFkyzxjwoaQ5pAAAAIEpsdzm6ZeUNk7YQBeURXV4ad/RyXN7vGGuWSXKTCAAAAKKMleyvvUHPHY8tG19FHJRHdH5p9FrjvUkyP5CUQSIAAACIcj5j7c8CCRn3/PL6YR3EQXlEJ1i8qvBSSb+QdA5pAAAAIMYcNlbfXrV00nNEQXnEGVrwRMEYd9jcL+mjpAEAAIAY95o15rY1iycWEgXlEafoxscKs0MefVPSbZISSAQAAABxImSsngx6Q3c9tWBaDXFQHvEeli9/3VOWl7vAWP1IUm8SAQAAQJxqkHRvY5b7gefmjw8QB+UR77BodcHFxpoHJE0iDQAAAEAyVgcdl76+ZvGkF0mD8hj3Fq7ZO9Jlwz+W1TWkAQAAALyrddaYm9csnrifKCiPcee6ZwpSk9t1uzXmm5KSSAQAAAB4X0Fr7OPJ7SnfefjmUc3EQXmMfdaaRWsKr5PMvcaqH4EAAAAAp1VhaiXnR41ZBx95bv78MHlQHmPS4lVFM6xxHjJWM0kDAAAAOCu7rLG3rlk8eSNRUB5jxg2P5+eF3eYnkrmWzAEAAIDOZJ93h52vrbhx6jGyoDxGrdvufzO5NS3tZkl3SkonEQAAAKBLtEl62Bt0/+ixZeNbiYPyGFUWrii40uUyD0kaRhoAAABAtyi3xn57zaJJv5Ixljgoj5FdGtfkTzXW9aCxmksaAAAAQI/UnG3WOLesWTx5K1lQHiPOskf25/oTA9811iyT5CYRAAAAoEc5kn3WGtftaxZPrCYOymOPW7Jyh9ca702S+b6kTBIBAAAAIorPWPuzRH/KTx6+eZSfOCiPPWLxqsJLJT0oaTxpAAAAABFdfQ4Za+9ctXTSc2RBeezG0pg/WnLdL+ljpAEAAABED2v0qjX21icWTS4iDcpjl/nKU7uzvEH3tyTdJimBRAAAAICoFDJWT0qBO1ctPbeWOCiPnWb5cusqyyu81lhzn6Q+JAIAAADEhHrJ/iCvov7R5csvChEH5fGsLFq950Jj7YOSJpMGAAAAEJMOuBx728obJq8lCsrjabv+yT2DPCHnbslcRxoAENs8bqMEj+td/1sg5CgU5pxpAIgP9vmwx9zy5IJJR8mC8viBlqzckSJ577DGfFNSEokAQGRJ9LqUmeJVWqJbyYlupSS4lZLg+r///ff/n+x1ye0ySk50y+0ySvS6lOB2yes2SvK65HKd2a/Ad5ZJa6W2YFj+gKOOkKNA0FF7IKz24Nv/2x/6v39u84fV3BZUa0dYLf6QWtvDciylFAAiUMAauyK5PeU7D988qpk4KI/v8iGDNUtW7bnaGv1M0mACAYDulZLgVnaqVznpXmWnepWd4lVmikfpyW//X2ayRxnJHnnfY4QwGrV0hNTaEVZrR0gtHW+Xy0ZfSPW+gOpagqr3BdXoCyrsUDIBoAdUWqPlA8snrlm+3DjEQXmUJC1dsedcx2UfkjSLNACga3g9LvXJSFCfjAT1zkhQn4xE5aZ5lZOWoOw0r5K8LkJ6F461amoLqa41qPrWgBpag6prDepkk1/VTX7VtwZFtQSALrXTcblueWLRhM2Uxzi24IldAzwhz/es0SJJ3LUAQCf8UslJ86pfdpLyshPVLyvpn4UxK9VLQF0gGHJU3RRQ9d/LZFWTX9WNb/9zWyBMQADQOayMfu8Yz+1PLBp3nPIYR6753d6ErMbQjZL5oaR0fhYA4PRlJHs0qFeyBmYnqX92ogZkJ6l/VqISGUGMGM1tIZXVd6i0rl2l9R0qq+tQVZNfDtNgAeBMtRlr70v1+e594Ouz2imPMW7hioIr3cY8aI2G89oHgFOTm56gwblJGpybrMG9kjWoV5KyUhhJjEbBsFVFQ4dK6zpU9vdSWVrXro4Ay3kA4DSUWWPvXLNo0q9kTNx8Ihc35XHR6j3nGKsHJHs5r3UAeG8piW4N65Oi4b2TNaxPiob1SVFqoptgYpi1UmVjh46ebNfRap9KTrarorFDbAYLAB9oveS+dfWS8fmUxxiwcM3eHGND3zPWLJPE3Q8AvPOXgJEGZCdpZL/Ut8ti3xT1zUxkNzWoI+CopKZNR0+2qeRkm46ebFdrR4hgAOA/OZJ91hrX7WsWT6ymPEahJSt3eB1XwvXGmrsl24vXNABILmPULytRI/um6Jy8NI0dkKbUJD5Xw6mpaQlof3mrjlS1aX9Fqxp9QUIBgP/TKOmepI7kBx++eZSf8hglFq8qvFTSg5LG8xoGEM+MpIG5SRqXl67RA1I1qm+qkhLY0AZnz0qqqO/QwQqfDlS26lClTz4/u7sCgGQOSfr66iUTn6c8RrClK3aPctzuu2V1DS9aAPEqK9WrcXlpGpeXpnPy0pSe7CEUdH2ZtFJpfbsOlvtUVNaiQ5U+hdjVFUB8Wyc5t65eMmUv5TGCfOWp3VneoPtbkm6VlMjrFEA88biMRvVP1cTB6Rqfl67+2bwNouf5g472l7eqqLRFRaUtqmeKK4D4FDRWT0mBO1ctPbeW8tiDli+3rrK8wmuNNT+V1JfXJoB4kZrk1tgBaZo8OEOTh6QrOYF1i4hsNS0B7TneooITzYxKAohH9ZL9QWPWwUeemz8/auf4R215XLyqcJ5kH5TMFF6LAOJBv6xETR2aocmDMzSsT4oMW6IiSrUHwtpT2qLdJc3aU9qiQIgzJgHEjf2Sc9vqJVNepjx2g0WrCwYaqx9L5lqJ3eQBxLYB2UmaPjxTkwana0ivZAJBzAmGrfaXt2rn0SblH29We4BNdwDEA/u8Nbp5zeLJJZTHLrBk5Y4UyXuHNeYOSdxBAYhZQ3sna9qwTE0blqk+GQkEgrgR+nuR3FXydpFk91YAMS5gjV3huBLvenLh2BbKY6eUcmuWrNpztTX2PskM4TUGIBb1y0rU+SOyNGNkFoURkOQ4VgcqfHrrcKN2H2tSR5CprQBiVoU1+v7A8olrli83Ef1mF9HlcfGqohnWOA8Zq5m8pgDEmqwUr6YPz9T04Zka2TeFQID38I+prVsONSj/WLPCbLYDIAZZoy3Gum5ZvWTCdsrjaViyckeKNQnflfQNSWwhCCBmJHpcmjYsU7NGZ2t0/1Q2vQFOU0t7SNuPNGnr4QYdq2knEACx1yGtVif6k29/+OZRzZTHDyyOez5mjX1M0mBeOwBixci+KZo1JkfnDs9UktdFIEAnqGry661DjXqzuEENnCMJILZUSPbm1Usm/4Hy+C6+8tTuLG/QvVLSfF4rAGJBZopH5w7P0ofGZCsvJ4lAgC5irXSgolUbDtRr97FmOUxrBRAzzG+N9d+waum5TZTHv1uysmCaNeZ3kkbwAgEQ1W/xksbmpWnu2BxNHZohl4t5qUB3amoLacuhBm3YX6/algCBAIgB9rix+uyqpZPfivvyuGh1wZeMNSvE8RsAolhKglvnDs/UJRN6qX92IoEAPX2r9Y7RSDbZARAD/JL95uolkx+Ky/L4tV8cSmxPbn/SWH2B1wKAaDW8T4rmjcvRucOz5HUzyghEosa2oDbsr9f6/fVqaQ8RCICoZax+nehPXvTwzaP8cVMeb3ysMDvk0Z8kzeMlACDauF1GU4Zm6NIJvTSCIzaAqBFyrAqONetve2pVcrKNQABEqzeNDXxi1dJza2O+PC5aXTDMWPOCpHO47gCiSXKCW7NGZ+vDk3opJ9VLIEAUO17brteK6vTWkUY22AEQjfY5Ls9Hn1g07njMlse/b4zzoqS+XG8A0WJAdpIumZCrC0ZmyevhmA0gltS2BPT63jptOtig9kCYQABEk0qX4/rIyhsmFMRceVy8au8Ua8LrjFUu1xlANBjRN0VXTO6tSUMyxGpGILZ1BB1tPFCvV/bUqpEzIwFEj0aXYz688oaJO2KmPFIcAUSTkf1S3y6Ng9MJA4gzIcdqx5Emvbj7pKqa/AQCIBo0uBxzWXcUyC4vj0tXFE0Ou51XKY4AIpnLZTRjeKaumNxbeTlJBALEOcda7TzapJcKalRW10EgACK+QFqjD69ZPGln1JbHJSsLxzoubaI4AohUxkjThmXqk+f2Vd9MzmcE8J8OV7fpLzurdaC8lTAARPJdTW3Y7XzoyYWTD0Zdebz+yV29PSHPm5JGciEBRBq3y+iCUVn66NQ+6p2eQCAAPtChKp/+uvOkDlRQIgFErBJv0D3rsWXjq6KmPC5ZuSPFmoTXJJ3P9QMQaaXxvBFZ+tjU3urDSCOAM3C4uk3/u6NKByt8hAEgEu30Bt0XPrZsfKd/0tXp5fGa3/3OndU49o+SruK6AYgULmN0/qgsXTWtj3IZaQTQCYpKW/S/O6t1vKadMABEmhfzKuo+sXz5RaHO/KKezn6U2Q1jH7KG4gggcpyTl6Zrzu+vgblshAOg80wYlK4Jg9K1v7xVf9hWpRO1lEgAEeOj5QN6/UzSrZ35RTt15HHJysIvWKNnuVYAIsGYAan61Ix+Gt4nhTAAdClrpR0lTfrrzmpVNXLEB4AIeW8y9strFk9+JuLK45KVhROt0VZJ3KUB6FGDc5P16fP6adzANMIA0K0cx2rjwQb9dWe1mttDBAKgp/kcl73giUWTiyKmPH7lqd1Z3qB7u9hZFUAPykrx6uPT++hDY7LlMoZAAPQYf8jR63vr9MLuk/IHHQIB0IPMIWP9M1YtPbfpbL9Sp6x59AbdT1IcAfSUBI9LF4/P1Uen9lGS10UgAHpcoselKyb31gUjs/T8rpPadLBBjrUEA6AH2FHWJKyRdM1Z19Cz/QKLVu9ZaKxdw0UB0N2MkS4Yma1Pn9dPmSkeAgEQsU7Utuu5tyo53gNAz1XITlj/eFblcdHqgmHGmnxJGVwOAN1pVP9UfX7mAHZQBRBVCo436w9vVamqiU11AHS7JsflmfzEonHHu708Ll9uXeUD9rwmaR7XAUB3yUzx6DPn9df5o7LEqkYA0SjsWK3fV68/76hSB+shAXQrs6kxa/+Fz82fHz6Tv33G87wq+u/5BsURQHdxu4wuHJerT0zvq6QE1jUCiO73s4sn5Gra8Az9aVu1thxqIBQA3cR+KKtx7C2S7j+j6nkmf2nhmn1DXE5or6RULgCArjZ+YLo+O6u/+mUmEgaAmLO/vFX/780KzocE0F3arLET1iyeXHK6f/GMPr53OcFHKI4AulpGikcLLhykWz4ylOIIIGadk5em731mlD43cwAzKwB0hxRjzaNn8hdPe+Rx0eo9nzbW/oHMAXQVY6R55+TqUzP6KjnBTSAA4kajL6jfba3UjqNNhAGgS1mjT65ZPOl/u6w8Llm5I8WahL2ShhI3gK4wMCdJ134oT8P7phAGgLi1p7RFz24qV31rkDAAdAljVeoJucc9tmx866n+ndOaG2GN9y6KI4CukOBx6TPn99NdnxpJcQQQ9yYOStfyz4zWheNyZdhaGkAXCDrhthcP7Ft2WoXzVP/gDY/n54XdrmJJ3NUB6FQj+6boy/MGqi/rGgHgPxypbtMzG8tU2cCGOgDOnjWq31dWVbTl0InZ1tqArHuMfrug9FT+7ikvJpp21U0Pyeg84gbQWRI8Ln3i3L760tyBSkvyEAgAvIucNK/mjs1RotelQ5U+OZZMAJyRYEVT8+Y/bSsacKymcbQkl2S8MjZdRX/566l8gVMaeVy0es85xtpCncW5kADwTqP6perLc/PUh9FGADhl5Q0demZDuUpOthEGgFPWHgjuWltYnFHb4hv5Lv85LDmT9f+W7P2gr3NKZdBYex/FEUBnSEpw6erz+2vO2ByxjAcATk9edpK+edVw/a2gVn/ZWa0Qw5AA3kfYcY5tKj5eU1xZM+N9/phb1nW3pE9+YC/8oD+weFXRDMnZRvQAztbwvilacOEg9clIIAwAOEvlDR166vUynahrJwwA/8qq6WBVTf7mQ8cvCIedU5vmZey5+s3ine/3Rzwf/DXC37Js8wXgLLhdRh+d2kcfm9pbLt5PAKBT5GUn6b8/OUIv5tfohV0n5VhGIQHIqfe1bXlpd/GYtmBg3ukVTvNNSfPftxu+339c8ETBGHfY7NNpHukBAO+8uVlw0SANyk0iDADoIker2/Tk+jKdbGJHViBe+YOh/LWFxSknm1tHn2nxlOOco/9ZUvxef+B9Rx7dYfMtiiOAM2GMdPH4XvrMef3kcTPaCABdaXjfFH330yP1p+3Veq2oVoxBAvHDWlux41h5Sf7xilmyZ7WlhEsu1+2SFr/n/d17/YdFqwsGGmuOSGJxEoDTkp3q1cKLBml0/1TCAIBuVniiRU9vKFNLe4gwgNjmO1Rdu33jgWMXhB2ns6Z4BRTyDtdzXy5/93b53sXzBoojgNM1eUiGvvvpURRHAOghkwana/lnRmn8wHTCAGKTbero2PLbrYVNb+w7emEnFkdJSpAnuOS9/uO7jjwuX/66p3xA7nFJA7g2AE6Fx2109Xn9ddGEXI7gAIBIuLuU9HpRnZ57q1JhjvQAYkIgHN7/atHhUFl908Qu/DaVSg8P0aqlwf+433u3P12Wl/NJYymOAE5Nv8xELb5kMJviAEAEMZIunpCrYX2Stfq1UtW2BAgFiFJWtrrgRGXxjiPls61sV+9J01/Nno9L+tO//4d3/cbGmqVcIgCnYuaobN356ZEURwCIUMP6pOjOT47UpMEZhAFEn0BFU/OGZzbsStl+pGxONxTHvxdCLX33f/1vFq7ZO9LlhIslZp4BeG//mKZ68YRcwgCAKPCPaay/31apUJhprECka24PbF1bcCCvqb1jUA98e0ceO1K/WlzyL/d///6nXE74CxRHAO+nd3qCll46WIN7JRMGAESJf0xjHdE3RStePaE6prECESkcdo5uOFhSf7i67oIefBguhV2fl/Tjf/2X/2k+lwzAe5k0OF13fmokxREAotSQ3sm661Mj2Y0ViDRWDXvLqzY8tXHHkMPVdef2/OOx/9EL/2WEccnKwrHWaD9XDsC/cxmjT83oq8sm92ZqAgDEAMda/e+Oaq3NrxGTWIEeFappat3yclHx+PZAKCfC3ijG6X8W/7Mf/tu0Vfs5ZqwC+HepiW4tvmSwxuWlEQYAxIi3PxTspxF9U/Xk66VqC4QJBehm7cHg7rUFxem1Lb45EfpGcY2kH/zzH/+lOhpzNZcQwDvl5STp258aSXEEgBg1aXC6/vuTIzQgm12zge4Sdpxj6/eVbP/1pt1Ta1t8IyP4oV7zzn/45zDjotUFA401pVxKAP93Q5GhRRcNUlKCizAAIMb5g45+ub5MO0uaCAPoIlbWd6y6fsfrB0suCIedxOh40K7B+u2CUulfRh5dl3M5AUiSMdInzu2rZZcPoTgCQJxI9Lq05NLB+tSMfjKsYgI6m1Pva9v8mzfz29btOzIvaoqjJLnsJf/4n/9c8+hynA9b3ikAbh68Li26aJAmD+EwaQCIN0bSR6b0Vv+sRD3xeqn8IYdQgLMUCIX3vlJ0SBUNzbOj8glY51JJv5T+MfJorbHGXMylBeJbVqpXt398OMURAOLclKEZ+uYnRignzUsYwJl2LqvK7SVlm5/etHNcRUPz+Oh9JuZSyRrp72seF6/aO0UK7+YSA/FrUG6Svnr5UGWncqMAAHhbU1tIj/7tmI7VtBMGcOrajlbXb1t/4Oj5IceJjYOxXe5Jevb6PS5JMjZ8PtcYiF/Th2Xqm1eNoDgCAP5FZopHt185QueNzCIM4BT4Ovzbf7u1oOHVfYcvjJniKEnWOU/6vzWP07jUQHy6ZEIvzb+gP5sjAADelddttPCiQeqbmajnd1bLEgnwH4Jh58CrRYcCpfVNM2LyCTp2uqQnPJJkjaZzyYH44nYZXTcnT7NGZxMGAOB9GUlXTuujXule/WpjuUJhKiQgSVa2uuBEZfGOo2WzrJU7ht8EpkuSueZ3exOyGsPNkhK5/EB8SPS8vR37xEHphAEAOC0HK3167G/H1R4IEwbiWbCiqXnLKwWHpgbC4Xi4oepQejjDLFq9Z5KxtoDrD8SHjGSPvnbFUA3plUwYAIAzUt7QoV+8dEwNviBhIO60+P1vrc0/2L+xrWNwXD1xl3uSx1iN4CUAxIfeGQm65Yqh6pPJRAMAwJnLy07SHVeN0EMvlaiq0U8giAthxx7dcPBo/eGquvjcbNSGhnuMtUMtG2UAMW94nxR99fIhSkvyEAYA4Kzlpnl1x5XD9cjLx3X0ZBuBIHY7k9S4r7yqcOuh0lmOtcPjNwkz1GWNGcJLAohtYwek6daPDqM4AgA6VVqSR1//2DBNHMwaesSkUE1T68ZnN+8Kv1l8Yq5jbbzfSA3xSHYorwsgdk0ZkqHFlwyW180UAwBA50vwuLTssiF6dlOFNh6oJxDEhI5gcPfagoNpNS1tc0jj7xwN8UgaSBJAbJozNkdf/NAAuTjEEQDQhVzG6No5eUpNcmttfg2BIHr7kXWObzp4rPpgZe15pPHvzCCPJOYZADHo4gm5+uzMAaI2AgC65bZS0qdn9FNKglt/3FZFIIg2vpLquh2vHyg5P+w4LOt71x9ym+aRlEISQGz59Ix+umJKb4IAAHS7Kyb3lsdl9NzWSlniQOSz9b62N9fmF4/yBQLziOP9yqNSPZJSSQKIlZ9paf7M/rpkQi/CAAD0mEsn9lKi16VfbyqXpUEiQgVDzt51RcW2rKF5NmmcSs1WGuURiKHi+NlZA3Tx+FzCAAD0uDljc5TocenJ9WVyHBokIodjVbXzWNmR/OMVs2RZ4XMaUj2SEsgBiP7i+PnZA3ThOIojACBynDcyS26X0ZrXSxWmQKLntZWcrN/2xsGj54VCDqONpy+RQ9+AKOcyRl+am6dZo7MJAwAQcaYPz1SCx6UV644rGKZAomf4OvzbX8g/0L+p3X8haZw5yiMQzcXRZbRg3kCdNzKLMAAAEWvi4HTddNkQPfY3CiS6VyhsD6zbdyhQWts4gzQ64d6TCIAo/eE1Rl+hOAIAosT4geladtlQed0sMUPXs0b1e8urNvxy4/ZRpbWNk0iE8gjELSPpix8aoAsojgCAKDJuYJpu/PAQeSiQ6DrBiqbmDc9s2Ol5s/jEXGvlJhLKIxDXxfELH8rTnLE5hAEAiDoTBqVr0cWD5XJRING52gPBXX/avvfEC7sOzA2Ewhkk0vlY8whEWXH8/OwBmncOxREAEL2mDc3Q4osHafVrpRzjgbPmOLZk44FjtcXVNaxrpDwC+IdPn9+P4zgAADFh+rBMBeY4+uWGMln6I86AlRqLK2sKNhUfm+k4dhiJUB4B/KM4ntdPl0/qTRAAgJgxc3S2Qo7VrzeWi/6I0+DU+9q2vLS7eExbMDCPOCiPAN7hism9dcVkiiMAIPbMGZujUNjq/71ZQRj4QO3BQP7LhYdTappbZ5MG5RHAv5k1OlufOq8fQQAAYtZF43PV6g/rrzurCQPvylpbseNYeUn+sQpKI+URwLuZOjRDX5qbJ/ajAwDEuiun9VGbP6xXi2oJA+/kK6mu2/H6gZLzw44zgDgojwDexTl5aVp88WC5DNURABAf5l/QX81tQW0/2kQYsE0dHVtfyi8e0tLewbpGyiOA9zKib4qWXcYhygCA+GKMdP1Fg9TqD2t/eSuBxKlgOLxvXdHhcFl900zSiCwuIgAiS5+MBN102RAlePjxBADEH4/LaNllQzS8bwphxBlrVZ1/omLj0xt2jS2rb5pIIpRHAO8jM8Wj2z46TOlJTAoAAMSvBI9LX71siPplJRJGfAhUNDVveHrjjtTtR8rmWFk6CuURwPtJ8rr0tSuGKjc9gTAAAHEvLcmjWz4yTFmpXsKIYb4O//bfbS2sfmHXgbnBsJNGIpRHAB/A7TJaeulgDc5NJgwAAP4uN82rWz8yVMkJbsKIMeGwc/S1vUd2/mZLwYym9o5BJEJ5BHAKjKQvzc3T+IHphAEAwL8ZkJ2kRRcNYvfxWGHVsLe8asNTG3cMOXKybjqBUB4BnIaPT++rmaOyCQIAgPcwcXC65l/QnyCiW7CiqXnD05t3ut4sPjHXWjGcHIXYlQPoQdOHZ+rj0/oQBAAAH+DiCbk62ezXa3vrCCPKtAeCu9YWFmfUtvjmkgblEcAZGNI7WdfPGygm4QAAcGrmz+yvutagCo43E0YUCDvOsU3Fx2uKK2tmkEZsYNoq0ANy07z62uVDOcsRAIDTuXE1RosuGqRBuUmEEcmsmg5W1qx/etOu/hRHyiOAs5DkdWnZ5UOVkczAPwAApyvx70dbZXOERyRy6n1tm5/dsjuw4UDJvHDY4aBOyiOAM/6BM0aLLxmsgTl8YgoAwJnKSvHqpsuGyMsMnojREQgV/O/OfYf/sK1odps/2JtEYhNDH0A3+uSMvpo4iCM5AAA4W0N6JevLc/K05vVSwuhB1qpyx7Gyo/nHK2bJspUD5RFAp5g2NEOXT+aDOAAAOst5I7N0rLZd6/bUEkb3ayuprtv++oGS88OOM5s4KI8AOsnA3CRdf9EgPo4DAKCTXX1+P1U2+LW3rIUwuodt6ujY+lL+wcEt7f55xBFfmCgOdLHUJLdu/PAQJbIuAwCAzr+ZNUaLLh6k3ukJhNHFQuHw/pcKDhb9bkvhzJZ2fx6JUB4BdOYPmMvohkuG8AsNAIAulJr49ge1HIHVNaxsdf6Jio2/3LBrTFl900QSoTwC6AJXn9dPYwakEgQAAF1sYG6Srp3DYFgnC1Q0NW94ZsOulO1HyuZYWbpDnGPNI9BFpgzJ0CUTexEEAADd5IKRWTpR0651RWygc7Z8Hf7tLxQc7NfU1jGXNEB5BLpQn8xELbiQDXIAAOhuV5/fT8dr23WoykcYZyDs2KMbDhytP1xdN4M08O8YegY6mddttOSSQUpK4McLAIBuv7l1GS2+eJDSkhgjOS1WDXvLqzb8csOOwYer684lEFAegW7whQ/laXBuMkEAANBDslK9WnDhQBmmAJ2KUE1T68Zfv7nLvll8Yq5jLa0b74kXB9CJPjQ2R7NHZxMEAAA9bMKgdF02qbdeLqghjPfQHgzuXltQnF7b4ptDGqA8At1oQHaSPjezP0EAABAhPnVuXx2p8ulwdRthvEPY2mPbDp2oLCqvnkkaOB1MWwU6gdf99gHFnC8FAEAE3ei6jBZfMpj1j//HV1Jdt/7pjTv7UxxBeQR6yGdnDdDAnCSCAAAgwmSnenX9hQPjfQd0p97XtvnZN3e3rdt3ZF447CTyysCZ4GMY4CxNG5apuWNzCAIAgAg1cVC6Lp3YS6/sib/zH4MhZ+8rRcW2vKF5Nq8EUB6BHpSb5tWX5uQRBAAAEe7T5/VTcZVPx2va4+L5WqvKHcfKjuYfr5gly9HT6BxMWwXO9IfHZbTo4sFKSXQTBgAAEc7tMlp4YVzsT9BWWte4/umNOzPyj1XMpjiC8ghEgI9N6a0RfVMIAgCAKNEvK1GfOa9fzD4/X4d/+++2FtSvLSyeFwyHU7ni6GxMWwXOwOBeyfro1D4EAQBAlLlwfK6KSlu0p7QlZp5TMOwceHXf4UBpbeMMrjC6EiOPwGnyuo0WXDhQbhezQAAAiDZG0nVz85SaFP3LTqxUv7e8asPTG3eMKq1tnMTVBeURiDBXn99fA7I5lgMAgGiVleLVl+YMjOanEKxoat7wzIad3jeLT8y1VmzAgG7BtFXgNJyTl6YLx+cSBAAAUW7q0AxdMCpLWw81RtXjbg8Ed71YeDCrvqVtLlcRlEcgQqUkuvWVeQPZsgwAgBjx+VkDdKjSp7rWYMQ/VsexJRuKj9UeqqxhXSN6DNNWgVP02Qv6KzvVSxAAAMSI5AS3vjJvUER/MGylxr3lVRue2rBjEMURPY2RR+AUTByUrpmjswkCAIAYM2ZAquaek6P1++sj7aGFappat7xcVDyuPRBiiiooj0A0SE5w64tz8ggCAIAY9Znz+mvPiRbV+yJj+mpHMLh7beGh1Jrm1jlcHVAegSgy/4L+ymG6KgAAMSspwaUvzsnTw2uP9ejjcKxz/K1DpRVF5dUzuSqgPAJRZmxemmaNYboqAACxbuKgdJ03IkvbjjT2xLf3lVTX7Xj9QMn5YccZwtUA5RGIMokel66bk8fuqgAAxInPzeqv/RWtamkPdde3tPW+tjfX5heP8gUC87gCoDwCUepT5/VT7/QEggAAIE6kJXk0/4L+euL10i7/XsFweN+6PYecsobm2SQPyiMQxYb0TtaF43IIAgCAOHP+yCztPNqk/OPNXfL1HauqncfKjuQfr5glywQnUB6BqOYyRtd9KE8uw/s5AADx6AsfGqDiSp/aAuHO/LLtpXWN217de3h6MOww2ojovE8mAuBfXTIxV4N7JRMEAABxKivFq49P79NpX8/X4d/+u62FtWsLi+cFw04aCSNaMfIIvENOmldXTetLEAAAxLmLx+fqzeIGldV1nPHXCIXtgdf2HvIfr2ucQaKIBYw8Au/w+VkDlOjlxwIAgLi/STZGX5h9ZruuW6P6veVVG365cfuo43WNk0kTsYKRR+DvpgzJ0OQhGQQBAAAkSSP7puiCUdnacqjhVP9KsKKpecsrhYemBELhuSQIyiMQg7wel+bP7E8QAADgX3zm/H4qON78gZvntAeCu9YWFGfWtvoojaA8ArHsism91YszHQEAwL/JSPboqul99dstFe/638OOc2zTgeM1xdU1rGsE5RGIdTlpXl0+qRdBAACAd3Xh+BxtLq5X6Ts3z7FqOlhVk7+p+NhMx7FDSQnxgJ1BEPc+O3OAEjz8KAAAgPe4Yf7XzXOcel/b5mc35wc3HCiZ5ziWqUuIG4w8Iq6NG5imqUPZJAeIN8GQo2DYKuRY+UOOJCkQdBRyrCSpzR9Wotclt+v/9llM8LiU4HEp2etScoJbxpAjEE+G903RqP7Jh+97fqdzsrl1NomA8gjEEbfL6HMzBxAEECNCYau61oDqWoKqbQmoqS2oVn9YrR1h+TpCaukIydcRVqs/rMDfC+PZ8HpcSvK6lJ7kUVqSW+nJHmUkeZSW7FFOmlc5qd63/39agrxumiYQzU7Utgfv+cve/Y+vK5hEGqA8AnFo3jk56peVSBBAFHEcq+rmgMrrO1Te0KG65oBqWwKqbQ2qyReU7cbHEgw5CoYctbSHPvDPZiR71CczUf0yE9Q3M1F9MhPVPytRfTIT5GIIE4hYzW0h+5s3jxff/PTGIcFwmOIIyiMRIB6lJLj18Wl9CAKIYG3+sE7UtqusvkPl9R0qq+9QRUOHgmEbdc+luT2k5vaQDlf5/uXfez0uDchO1ODcZA3MTdLg3GQN7pXMSCXQw0Jhqzf215Z/ZeUbrvK65jEkAlAeEcc+OrWP0pJ4+QOR5GRzQEeqfTpS1abD1W2qbOyQtbH9nIMhR8dr2nW8pv2f/87tMhqUm6ThfVI0rE+KRvZNUS5HCQHdZm9ZS8vNT2+peG1vKaURoDwi3vVOT9DF43MJAuhhVY1+FZW16FClT0eq29R8CtM/40HYsTpW065jNe3S3jpJUq/0BI0ZkKoxA9I0dkCqslK8BAV0/ntS6IG1+w/c95dd46wsxRGgPALSp8/rJw9TwoBuFwg5OlLdpv3lrco/3qyqRj+hnKLaloBqDwa0+WCDpLc/BDsnL02ThmRoXF4a72nAWWjzh/ViQWXJ9Ste693aEZxAIgDlEZD09jbb04ZnEgTQTepag9pV0qSi0hYdqvIpFLaE0glqWgKqOVCvDQfqlZTg0rgBaZoyNFOThqQrJcFNQMApcKzVluL6k19e8XrwSHXTMBIBKI/Av7j6vH7i83mgazX4gtpZ0qQdR5pUcrJN1MWu1RFwtOtYs3Yda5bHZTQ2L03ThmZoytAM1nYD7+FwVVv7Hb/ZXvKnHYfHkQZw6sziVYX8XkdcmDQ4XV+9fChBAF3A1xHWntIW7Tj69iijY/nV0tNcxmjMgFTNHJWtqUMzlOh1EQriXqMv6Dy98eih2361aaS1YpgeOE18JIm4YIz0yXP7EQTQiRxrtedEizYeaKAwRuj12V/eqv3lrUryujR1WKZmjc7W6P6pzMBA3PEHHa3Nrz52/apXMxt8fjbDASiPwHs7b0SWBuYmEQTQCRp9QW093Kj1++pU1xokkCjQEXS0pbhBW4ob1CczUR8ak63Zo7OVnsxtAGKblbTnRHPDglXrm3YePTmURADKI/C+3C6jq6b3JQjgbG7ArJR/vFkbDtRrX1mLGGSMXieb/Prjtir9ZWe1pg7N1MXjczWibwrBIOacqO3w//APuw+tWb9vgqRsEgEoj8AHmjM2R70zOGAbOBOhsNWOo016Mf8kR2vE4LXdfqRR2480anCvZM09J0czR2XLy7EfiHJNbUH7P1tOHPrq0xuHBENhjt4AKI/AqfF6XPrY1D4EAZym5raQXttXp/X76+TrCBNIjDtR265fbyzXX3dW66LxubpoXK6SOfIDUSYUtnptX03Zlx57Nam6qW00iQCUR+C0zB2bo8wUXubAqapq9OtvhTXaeriRMxnjUFNbSH/eXq21BTW6aFyuLpnQSxmsi0QUKCptabrhiU11m4srhpMGQHkETpvXbXT55F4EAZyCmuaA/rqrWtsON7FrKtQRcPRSfo3WFdXpQ2Oy9ZHJvZWV6iUYRJyqRn/ovhf2Hbz/xV3jZJVJIgDlETgjc87JUVYKNzvA+6n3BfVKYa3W769jpBH/IRhy9PreOm3cX69Zo7N15fS+zOZARGgLhO0f3yo7snjNG3kdwdB4EgEoj8AZ87qNrpjUmyCA99DYFtRLu2u08UC9Qg6lEe8v5FhtOFCvtw436qIJubp8Um+lJrImEt3Pcaw2F9dXfWnF6/bYyaaRJAJQHoGz9qGxOUyxAt6FP+RobUGN/lZYq2DIIRCc/usnv0Yb99frY1P76MLxufK42J0V3eNQVZvvtme2VLyQf2wUaQCUR6BzXtRuoysmM+oIvJOVtOtok37/VqXqWoMEgrPi84f1u62VWldUq0+e20/nj8oSFRJdpbEtFH7ijcOHb//1m6OsLMURoDwCnWfW6GxlM+oI/FNJTZv+581KHT3ZRhjoVPWtQT35Rqk2HqzX52cN0MCcJEJBp/EHHb2QX1Vy/eOv9mruCIwhEYDyCHQqlzG6jLWOgKS3j13447YqbT3UIFY1oisdqvTpR386rIvG5eqq6X04IxJnxUraebSx9vrHX/cXldcPIxGA8gh0ienDMtQnI4EgEPc3XpsP1Ov3b1WpLRAmEHQLx7F6tahW24806urz+zOVFWfkeE27/zvP7Tz6q00HzyENgPIIdKnLWeuIOFfTEtCvN5Zrf3krYaBHNLeH9OQbpdp0sF7XzclT38xEQsGpvG6cZzcfO3LzLzcOCzkOxRGgPAJda/zAdA3ulUwQiEuOY/XGvnr9aXuV/OyiighQXOnTD/54WFdO66PLJvWSyzAOif8Ucqw2Hqit+MLD65KrmtrYDAegPALd4/LJvQgBcam0rkNPry/Tibp2wkBECYYc/XFblXYfa9b18waqXxajkPg/RaUtjUtWb2jccrhqKGkAlEeg2wzrnaKxA9IIAnHFWulve2r0v9urFXLYEgeRq+Rkm374p8P6zIx+umhCLmsh41xlY0fwJ3/ec+jhvxWOk5RFIgDlEehWl07MJQTEleb2kH65vkxFpS2EgagQDDn67ZYK5Z9o1lfmDVQORyrFnbZA2P7xrbIji554Y5A/EBpHIgDlEeh22aleTRuWSRCIG7tKmvSrjeXy+dlJFdHnQHmrfvD7Q/rS3Dzeu+OE41htKq6rvPaR17yl9S0jSQSgPAI95sJxuXK7mASF2OcPOvqfLRXadLCBMBDV2gJhrVh3QvPG5Wr+Bf3ldfMeHquKK32+m5/ZUvFywXE2wwEoj0DP8npcmjs2hyAQ86qb/Hr8lROqaOggDMSM9fvqVFzZqiWXDFZedhKBxJDalkD48XUHD3/399tGy4riCFAegZ43c2SWUpPcBIGYtvtYs55aX6qOAEdwIPZUNvh1z/8e0VfmDtT04UxjjXb+kGP/urP82IKVb/Rp6QiMIRGA8ghEjIvGs1EOYpdjrV7YXaPnd1XLspkqYrlwBB2tfPWE5pbn6POzB7AUIQpZSXtONNdf++hr/j2ldcNIBKA8AhFlXF6a8nKY5oTY5OsIa/VrJ7SvvJUwEDc2HKjXyZaAllw8SGlJ3KJEixO17e3feHZb+XNvHWYzHIDyCESmeeMYdURsKqvv0KMvH1Nda5AwEHcOlLfq7j8d1lcvH8oHhBGuqS3kPPnGkeJv/GbTKMcRxRGgPAKRKTvVq8mD0wkCMWdfeatWrjuh9gDHcCB+1bUGdc9fjmjRRYM0eUgGgUSYkGO18UBt+fyHXs6obfGPJRGA8ghEtLljc+RiTQxizOaDDfr1pnKFHRY4Av6go8dfOaFPzuirKyb3JpAIsb+spWnByg1NW49UDSYNgPIIRDyXy2j22GyCQMywkv60vUpr82sIA3gHx1r9cVuV6lqD+vys/nIZPjTsKZWN/sD3/5BfsvLVojGS2BYXoDwC0WHqkAxlpXgJAjEhFLb65YYybTvcSBjAe1i/r05NvqAWXzxIXo+LQLpRmz9sf//WiSOLn1g/OBAMc/QGQHkEosu8c3IIATGhI+Do4b8d06FKH2EAHyD/eLMeXHtMyy4bopQEzvftao5jtfFgXeUXHl2XWFHvYzMcAJRHRJ8+mYkak5dGEIh6Pn9YD71UomM17YQBnKJDlT7d99ejuuUjQ5mB0oWKq1pbbnhyc93rRWVDSQPAOzH3A1Fl9uhsseIF0a6lPaSfv3CU4gicgfL6Dt37l6OqaQkQRierbQmElj9XWDzm6/+TTnEEQHlEVDNGOn9UFkEgqjW1hfTzF0pUVtdBGMAZqmsJ6OfPH9XJJj9hdAJ/0NGftpUfH3rzb0Pf/9P20SQC4L0wbRVRY/zAdOWkMk0J0X3De/+LJappZsQEOFv1rUH99K9HddtHhykvJ4lAzoCVtONo48kvPLzOdbi6aQiJAPggjDwiaswazfEciF41LQH99K9HKY5AJ2puD+n+F0tU2cgI5Ok6XtPefvWDbxw5764/9Dlc3dSLRABQHhEzUhPdmjIkgyAQlRp8QT3wQokafEHCADpZS3tIP3/+KAXyFDW1BZ2H1h48Mvy2/5f0x21HRpAIAMojYs75I7PkcbNVDqLwxrYjpAdfLFEtm3sAXaa5/e2fM0b231vIsXq16GT5iFv/p/3WZzaNcBzLL1UAlEfEpplMWUUU8nWEdf8LTKkDukODL6j7Xziq+lZG+P9dwfGmhhl3/qXy0h//Na+u1Z9KIgAoj4hZfTITNaRXMkEgqnQEHD20tkTl9eyqCnSXuta3C2Rze4gwJFU3+QM3rNlydMp//z47/3htfxIBQHlEzLtgZBYhIKoEQ45+8fIxznEEesDJ5oAeffm4/EEnbjNo7QjZla8ePjTwq8+6V762bzivCgCUR8SNGSMyCQFRw0p6emO5Dlf5CAPoISU1bXr0b8cVCtu4et6OY7XpYG3l2P96rvWGJ9aPCoWtm1cDgM7EOY+IaMN6p6hvZiJBIGr88a0qbTvcSBBADztQ0apfbijTwosGKR52himuam1evHpj44b9FYO5+gAoj4hL541k1BHRY9OBer1cWEMQQITYdrhRfTISdNX0vjH7HOtag8H7ny868eO/7BohiTOtAFAeEZ9cxmjG8CyCQFQoKm3RrzdXEAQQYV7YdVK9MxI0c1Rs7dodCFn7153lJ65b8Wr/dn+I8xoBUB4R30YPSFVGCi9RRL7Sug6tevWEHMcSBhBhrKRfbSxXr7QEjeof/adUWCttO1Jf/YVHXvMePdk0hCsMoDuxYQ4i1vShzL5B5GtpD+nRl4+pI453dgQiXShs9fi6E6prCUT18zhe2+676mevnrjgu3/qe/RkUw5XFgDlEZBkjDRlKOsdEdkca/XEG6Wq93EoORDpWjtCevSV4wqEou+Dnub2UPinz+87NOyW36Q+v/sYG+IA6DHMCUREGtkvVZlMWUWE+8O2Ku0rayUIIEqU1XXomY3lWnTRoKh4vIGQo3WFVaXXPv5a7waffxRXEADlEXgX0xl1RITbfaxZ6wprCQKIMtsON2pIr2R9eGKviH6c+8pbGr7w6OuBgmM1g7hqACiPwHswkqaw3hERrKrJr6fWl4rtcYDo9IdtVRrWO1kj+0XeBjonmwP+u367s3L1G/uGcqUARBrWPCLiDO2Topw0L0EgInUEHD368nF1BNggB4hWjmO15rVS+TrCEfOYWjvCzqN/Kz6cd9OzXoojAMojcIqmMeqICPabzeWqbvITBBDl6n1BPRkBMwjCjtWrRSfLR9zyP+1f/eXGkSHH4d4MQMRi2ioizqQhlEdEpp0lTdp6uJEggBix50SL1hXW6sOTemb94+Gq1uYFqza0bTxQmcfVAEB5BE5T7/QE9c9KJAhEnAZfUL/aWE4QQIz5w/YqjeqfqqG9k7vte9a2BII/f76o9J6/7h4uiU9MAUQNpkYgokxm1BERyFrpyddL1eYPEwYQYxzH6qk3ShXshvMfAyHH/v6tE8cHfe03rr8XRwCIKow8IqJMHJxOCIg4L+af1MFKH0EAMaqy0a8/bq/WZ2f275KvbyVtP1J/8nMPv5pQcrJ5CIkDoDwCZykpwaVR/VMJAhGlpKZNz+86SRBAjHutqFYTB6drXF5aJ7+HtLcue2pTw0v5JzivEUDUY9oqIsb4vHR5XIYgEDFCjtXT68sVdjjREYh1VtIz68s67RieprZQ6Id/LDw04tbfpFEcAcQKRh4RMZiyikjzUn6NKho6CAKIE/W+oP6wvUpfnD3gjL9GIOToxfzK419a8Vq/lrbAKFIFQHkEusA5nTxVCDgbVU1+rc1nuioQbzbsq9P0oRkaewa/k/aVt9R/9hfrVFRaz7pGADGJaauICAOyk5Sd6iUIRARrpWc2lCsYZroqEHc//5J+vbnitHZfLa/v6Lj20Y0l42//XU5RaX0OKQKgPAJdaByjjoggb+yr0+EqdlcF4tXJJr9e2F3zgX+utSPsPLT24JEht/wm8dnNxcNIDkCsY9oqIsI5AymPiAz1rUH9aXsVQQBx7m+FNbpgdJb6ZSb+x38LO1avFlWXXfvIul41rf4RpAUgXjDyiB7ncRmN7scRHYgMv9taqY6gQxBAnAs5Vv9vc8V//PtDVa1Nc3/wwsnL73lhYE2rP4mkAMTVfTsRoKeN6JeiRC+fY6DnHa5u0+6SJoIAIEnaX96qnSVNmj4sU3UtgcBP/lJY+fMXCtgMBwDlEegp7LKKSOBYq/+3uVxskQPgnZ7bWlFbcKK2+aYnNwzxBx2KIwDKI9CTxvanPKLnbTrYoNI6znQE8E/BiqbmLU9vODQ1EA4PJw4AoDyihyV4XBrcO5kg0KM6Ao7+srOaIABIknwd/u0vFhzs29jWMZc0AIDyiAgxom+KPC5DEOhRf91Vrea2EEEAcS7s2KMbDh6tP1xVN4M0AIDyiAjDLqvoabUtAb2+t44ggDhmpcZ95VWFWw+VznKsZYoqAFAeEZHlsT/lET3r+V0nFXLYJgeIU6GaptYtLxcVj2sPhJiiCgCUR0Tsi89tNLRPCkGgx5xs8mvr4UaCAOJQRzC4e23BwbSalrY5pAEAlEdEuOF9UuR1s94RPecvO0/KYdQRiCuOdY6/dai0oqi8eiZpAADlEVFiZF+mrKLnlDd0aPvRRoIA4oevpLpux+sHSy4IhzmvEQAoj4gqw/pwRAd6zl93VMsy6AjEA1vva3tzbX7xKF8gMI84AIDyiCg0nPWO6CEn6tq1+1gzQQAxLhhy9r5SVGzLG5pnkwYAUB4RpXqnJyg9mZcfesba/Box6AjELseqauexsiP5xytmyYrF9QBAeUQ0G9aXUUf0jLqWgHYx6gjEqvbSusZtr+49cm4wHGa0EQAoj4gFw3tTHtEz1hXVscMqEIN8Hf7tL+Qf6N/U7mddIwBQHhFLhvVlsxx0vzZ/WJsO1hMEEEOCYefAq/sOB0prG2eQBgBQHhFrLzqX0aAcyiO634YD9fIHHYIAYoA1qt9XVlW05dCJ2dbKTSIAQHlEDBqQkySPm/0L0L3CjtXre+sIAoh+wYqm5i2vFB6aEgiF5xIHAFAeEcMG5yYRArrd9iNNavAFCQKIYu2B4K61BcWZta0+SiMAUB4RF+WxF1NW0f3W72fUEYhWjmNLNhQfqz1UWcO6RgCgPCKuymMu5RHdq7LRr6PVbQQBRBkrNRZX1hRsKj4203HsMBIBAMoj4ojLGOUxbRXdbMP+enE4BxBVnHpf25aXdhePaQsGOHoDACiPiEd9sxKU6HERBLpNKGz11uFGggCiRHswkP9y4eGUmubW2aQBAJRHxLFBTFlFN9tZ0qTWjhBBABHOWlux41h5Sf6xCkojAFAeAWlgDlNW0b02HqgnBCCy+Uqq63a8fqDk/LDjDCAOAKA8ApKk/lmJhIBuc7I5oEOVPoIAIpNt6ujY+mL+wSGt7X7WNQIA5RH4VwOyGXlE99l+pJGNcoAIFAyH960rOhwuq2+aSRo4W8ZIXnfP76cQCls5lt863Vpk3C65TM8+BmulYNihPAKdzetxKTfdSxDoNjuONhECEEGsVXVBaUXxjiPls60su6ehU3xi+hD96euX9vjjuPnpLXr45X1ckG60efnHdd6I3j36GHz+kNKuf5ryCHS2/lmJchlDEOgWVY1+ldd3EAQQGdpL6xq3vbr38PRg2JlDHABAeQTe1wDWO6IbbT/SSAhABPB1+Le/kH+wX1N7B+saAYDyCJya/qx3RDfaUcKUVaAnhcLhg6/tPdJxvK5xBmkAAOUROL3yyMgjukl5Q4cqG/wEAfQAa1S/r6yqaMuhE7OtlZtEAIDyCJy23pkJhIBusZONcoCeEKxoat7ySuGhKYFQeC5xAADlETgjRlKfdMojuseeEy2EAHSj9kBw19rC4ozaFh+lEQAoj8DZyUr1yuthV3Z0vZaOkE7UtRME0A3CjnNsU/HxmuLKGtY1AgDlEegcfTIYdUT3KCptEWc0A13MqulgVU3+5kPHLwiHnaEEAgCUR6DT9M5ksxx0V3lsJQSg6zj1vrYtL+0uHtMWDHD0BgBQHoHOx3pHdMtdrbXaV856R6Ar+IOh/LWFxSknm1tnkwYAUB6BLsNOq+gOx2ra5esIEwTQiay1FTuOlZfkH6+YJStDIgBAeQS6VK80yiO63t5SRh2BTtRWUl23/fUDJeeHHWcAcQAAKI/oFjlpXkJAlyuu9BECcPZsU0fH1pfyi4e0tHewrhEAQHlEN77I3EZpybzU0LXCjlVJDUd0AGcjEA7vf7XocKisvmkmaQAAKI/odjmpXhbJoMuV1nUoEHIIAjgDVra64ERl8Y4j5bOtLIfyAgAoj+gZ2UxZRTc4XM2UVeAMBCqamre+UnBoaiAcnkMcAADKI3pUTiqb5aDrHalqIwTgNPg6/NtfKDjYr6mtYy5pAAAoj4gIjDyiW8rjScojcCrCYefohoMl9Yer62aQBgCA8ojIKo+plEd0rbqWgBp9QYIA3o9Vw96Kqj1bDp2Yba2GEwgAgPKIiJOZwssMXYtdVoH3Fappat3yclHx+PZAiCmqAADKIyJXRhIvM3St8voOQgDeRXswuHttQXF6bYuPzXAAAJRHRL50Rh7Rxcooj8C/CFt7bNuhE5VF5dWc1wgAoDwiemQk8zID5RHoDlbWd6y6fsfrB0suCIedoSQCAKA8ImokelxK9HDeNLpOR8BRfUuAIBDvnHpf25aXCg6ObvMH5xEHAIDyiKjDqCO6Wll9uywxII4FQuG9rxQdUkVD82zSAABQHhG1WO+Iri+PTFlFfLJWlTuOlR3NP14xS1aGRAAAlEdEtbREXmLoWhUNfkJAvGkrrWvc/ureI+cGw2FGGwEAlEfEhtRENyGgS9Ww3hFxxNfh3/7X/AMDWtr9rGsEAFAeEVuSE9ksB12rjvKIOBAMOwdeLToUKK1vmkEaAADKI2JSagIjj+g6VlJ9a5AgEMOvcVtdcKKyeMfRslnWijdUAADlEbErmfKILtTcFlIg5BAEYlGwoql5yysFh6YGwuE5xAEAoDwi9ssjax7RhWqZsooY5Ovwb3+x4GDfxraOuaQBAKA8Im6kMPKILsR6R8SSsGOPbjh4tP5wVR3rGhEV3C6jyybl9fjjmDYsNyLyOCcvSx+ZMrDHH8fGA9Vq7ejaJR2j+2dqRN/0Hn+umSkJEfFzEAnXvbqpXbtK6iiPoDwC74WRR8QCKzXuK68q3HqodJZj7XASQbRITfToxTsuJ4i/u/HSc3Tjpef0+OOYcMcftbesoUu/x/XzRulbV03moktK8roj4ufgr7tO6KqfvUJ5RHRL9LLbKrpOY1uIEBDNQjVNrVteLioe1x4IMUUVABDxKI/oUgkeQwjoMq0dlEdEp45gcPfagoNpNS1tbIYDAKA8Am+XR0Ye0YXl0R8mBEQVxzrH3zpUWlFUXj2TNAAAlEeA8ojuKo+MPCJ6+Eqq63a8fqDk/LDjDCEOAADlEaA8ojvvxjsYeUTEs/W+tjfX5heP8gUC84gDAEB5BN6rPLpZ84iuw7RVRLJgyNm7rqjYljU0zyYNAADlEXi/F5fLyOWiPKJr+EOOgiGHIBBxHKuqncfKjuQfr5glK94EAQCUR+CDeJmyii7kY9QRkae9tK5x26t7j5wbDIcZbQQAUB6BU+Vm1BFdKBBk1BGRw9fh3/5C/oH+Te1+1jUCACiPwOlyMfCILhRyLCGg51+HYXtg3b5DgdLaxhmkAQCgPAJnWh4NI4/o0pt2QkCPsUb1+8qqirYcOjHbWrlJBABAeQTOqjySAbqwPDLyiJ4RrGhq3vJK4aEpgVB4LnEAACiPQKeUR9ojurA8hlnziO7VHgjuWltQnFnb6qM0AgAoj0DnlkcyQNcJM20V3cRxbMnGA8dqi6trWNcIAKA8Al1SHmmP6EJMW0VXs1JjcWVNwabiYzMdxw4jEQAA5RHoIsxaRVcKUx7RhS+vkw1NG/6298iE9mCIozcAAKA8oqtZ7u3RhRjZRldo93fkv7xpW0pNXf1FkuuoMjKOKzHlXJIBAIDyiC7EwBC69M2L8ohOZK2t2FG0vyR/f/Hsd7yLDVdz43C5W7YrI7evPJ7BJAUAoDwCXXEzRnsE5RGRz1dSWrbj9W27zw+HwwPe9U+EwzPUcDKohIQNSs+ZKpcrndgAAJRHoBM5zFtFV755uSmPOCu2yde69aU33hzS4ms7lXWNXgUCc1VXVa2UtHylZsyW5CJGAADlEegEnKSAruSmPOIMBUOhfeve3BYuqzo58wz+el+1tfZVu2+/MnKCSkicRKIAAMojcJYYeURX8roY9MHpsdZWFxw8VLyjcP9sK+s6yy92jprqrNyeLcrMGSy3J4+EAQCUR+BM760cMkDXYeQRpyFQUVO79W+btk4LBkNzOvHrGoVDM1V/sk0JSeuVkX2ejEkmbgAA5RE4TZzDh66UQHnEKfC1tW9/4Y1N/ZpafXO78NukKNAxT3VVlUpJ36WUtFmSeIECACiPwKkKhhl6RNdJTeLtC+8tHA4fXb99d8ORE2Uzuu2bWttfvub+amstUGZOkrwJY7gSAADKI3BK5dHKsVYuwwfw6HxJXpc8bqMQOzPhXwqcGvYeObpny+7C2dZqeM88BmeyGmsdebyblZk7Wi5Xby4MAIDyCHxQgQxZJXopj+gaqYluNbWFCAKSFKyoqd3yyua3JgcCwbkR8HhcCgVnq67Kp4Sk9crMuUBSIpcJAEB5BN5DIOwo0cuumOgaaUkeyiPU7vfvWrthS0ZtQ+PcCHx4qQp0zFNtxTGlZlQqOW0mVwwAQHkE3q08hphSiC4sj4luQohj4bBzbNOu/JrikhMzIv7BWg1Va/NQtbXuUmZOhjwJI7mCAADKI/Av5ZFNc9CF5ZFNc+KTtU0Hj53I37yz8IKwEx4aVY/dcaapoTYoj3ejMnPHy+XK4YICACiPAOURXSw1iZHHOOPUNzVveWn95tFtHf55Ufw8vAoF56iuukEpKRuUmjlbEi9mAADlEfHNH6Q8outkpngJIU50+AMFL2/cknyyvmF27Dwrm60231y1+Y4qPadBSUnTudIAAMoj4lZbIEwI6DK90iiPsc5aVe4o2nc0/0DxLFnF6tbNw9VSL7W5tyszp5/c3kFceUSDjmBYt/9mW48/jvEDs/WVuaN6/HH8ecdxbS6u7vHHUdXY1uXf48X8MtW1+nv8uX7tsnEa3CutRx9DIOTozt/t6PEsDlc1Ux4R/dr9lEd0ndz0BEKIXW0lpWXb39i++7xQKDw7Lp5xODxD9TUBJSRsUHrONLlcabwMEMkCIUc/e35Pjz+OT547JCLK42t7K/Twy/vi4tpvPFCljQeqevxxXHP+sB4vj8FwZPwcdBfKI7qUj5FHdKFelMdYZJt8rVtf2rBlcEuLb14cPv8EBQJzVVddrZTU3UrNmC2J844AAJRHxL72AGse0XWyUj3yuIxCDkfCxIJQKLT/lTe3h8qqqjkLUbav2lr7qt23Xxk5ISUkTiQTAADlEbFdHpm2ii7kMkbZaV7VNAcII5prkmx1wYFDxTsK98+2soyy/Us49hw11Vm5PVuUlTtELvcAQgEAUB4Rk9gwB10tNz2B8hi9AhU1tVtf2fjW1EAoOIc43pNRODRTddVtSkhar4zs82VMErEAACiPiK3yyMgjuljv9AQdIIao42tr3/7C+s39mlpa55LGKUtRoGOeaisrlJpRopS02UQCAKA8Ima0doQIAV2qf3YiIUSRsOMc3bBtV/3hE2UzSOOMDZCveYDaW/OVlZMid8JoIgEAUB4R9ZrbKY/oWgNzmL0XFawa9h45umfr7j2zHGuHE0gncJwpqq915PFuVmbuGLlcvQgFAEB5RPSWR0Ye0cUG5SQTQmQL1dQ1bHl509bx7X4/U1Q7n0uh4GzVVTcpKWm90rNmSoYzbAAAlEdEn46Ao2DIkdfDBoroGqlJbmWleNXYFiSMCNPu9+9eu2FLem1DI5vhdDmbqY72efK3H1NaVo2SUpgWDACgPCL6NHeElZtGeUTXyctNojxGkLBjj23LL6osOnyE8xq7vUNqqFoah8rXvEuZuRnyeEcSCgCA8ojoKY/tQeWmeQkCXWZgdpL2lrYQRM/zlZSW7Xj9rd0XhJ3wUOLoQY4zTQ01QSUkbFBGzhQZVwahAAAoj4j88tjGukd0rTw2zenxqlLf1LzlpfWbR7d1+OcRR8TwKhCYq7qqeiWnblBq5mxJbmIBAFAeEbFa2HEVXWxILzbN6SnBYHjvK29uteXVNZw5GKmsctTmm6v29gPKyPIrIWkyoQAAKI+ISA0+1qKha/XLTlRqklu+jjBhdBPH2qqdRfuP5B8oniUrQyLRUCKdsWqql9zu7crM7Se3ZxChAAAoj4go9ZRHdDEjaUSfFBWeYN1jN2grraza/uqWHecGQyFGG6NRODxD9SfblZC4XunZ0+VypREKAIDyiIjQ0Ep5RNcb2TeV8tjFfG3t2194Y3P/ptZW1jVGv2QF/PNUV1Wl1IwCpaTNkhhBBgBQHtHD6imP6AYj+qUQQhcJhkMHXt2yPVBaUc3ZgbGnn3zN/dTWuk8Z2Y4SEicQCQCA8oieK49MW0U3GNo7RR6XUcixhNFJrFX9viNHi7bsLpxtLbt0xvbFdsapqc7K492sjJxRcrv7EAoAgPKIbhcIOfL5w0pN5N4TXcfrNhrcK1lHT7YRxtkLVtTUbnll41tTA6HgXOKIG0ah4GzVV/uUkLReGdnnyxjOwQEAUB7RvRpag5RHdLmR/VIoj2ep3e/f9eL6zVn1jc2UxviVqkDHPNVWHVdaeoWS02YSCQCA8ohuU9sa0MBcPsBG15owMF1/K6wliDPgOE7Jhh27aw8dK2VdI/7ODlFr8xD5WnYrKzdVnoTRZAIAlEegy9U0BwgBXW5k/1Qlel3yBx3CONV6IDUWlxwv2LSzYKbjOMNIBP/5IrFT1VAbkse7UVk542TcuYQCAPHJRQSgPCJWeFxGY/pzZN0pCtXUNWx89i8vhjds3z3PcZwEIsH7/XgpFJyjmmq3WhrWS5Y3dQCIy18GQDc42ewnBHSLiYPSVHiimSDeR4c/sHvtpq2pNXX1c0gDp8UoSx3t8+TvKFF6dq0Sk5jmDACUR6Bz1TTxITW6x4RB6YTwHpywc/ytgr0VRYePsAEKzo61w9RcP0wu1y5l5mbJ4x1OKABAeQQ6RV1rUCHHyuMyhIEulZueoH5ZiapqZLT7HXwlpWU7Xt+2+/xwODyEONBpHGeaGmqCSkjYoPScqXK5+PQGACiPwFneX1irupaA+mYmEga63MRB6ZTHt9n6puY3127YMsrX3j6PONBFvAoE5qq+ql7JqRuUmjlbEmczAQDlEThzJ5soj+ge04Zl6pU98X1kRzAU2rdu81tOWXXNbF4R6BZWOWrzzVV7+wFlZAeUkDiJUACA8gickapGvyYOZkYTut7wvinKTfOqrjUYd8/dsbZqZ9H+I/kHimfJinni6IES6YxVU53kdm9XZm5/uT0DCQUAYgNHdaDbVDZ2EAK6hZE0bXhmvD3t9tLKqvXP/PmFtPz9xbMpjuhx4fAM1Z/MUVPdelnrIxAAoDwCp6yigTVo6D7nxlF59LW1b//di6/Urt24dV4wGOKgS0SSFAX881Rb2aK21s2SLJEAQPRi2iq6rzw2dshKDIegWwzrnaLeGQmqaY7dY2JCQefAa1vf8h+vrOasPUS6fvI191N7y16l51olJEwgEgCgPALvqSPgqNEXVHaqlzDQLaYPy9TagpqYe15Wqt93+GjRlt2Fs61lV0tEEceOV1OtI493szJzR8vl6k0oOFuv76vUuXf+b48/jhN1rVyMbvblxzcoNbFn60zYia8JFZRHdKuKhg7KI7rNuSNirjwGK2pqt7yyaeuUQDA0lyuMKOVSKDhbdVU+JSStV2bOBZLYihtnrKktoJ0ltQQRhw5UNBIC5RGxrLLBr/ED2XEV3WNwbrIG5ybrRF171D+Xdr9/19oNWzJqGxopjYgVqQp0zFNN5XGlpVcoOW0mkQAA5RH4p/IGdlxF9/rQ2Gz9ZnP0lsdw2Dm2aWd+TfGxE6xrRIyyQ9TaPES+1t3KykmXJ2EkmQAA5RHQidp2QkC3On9kln7/VpUCISfK7qdt08FjJ/I37SyY6TjOUK4kYr9DOlPVUBuSx7tRmbnj5XLlEAoARBaO6kC3qmzwKxRmp3Z0n+QEt6ZH17EdTn1T8+Zn//pycMP23fMcx0ngKiKOeBQKzlFdtZGvaYOkEJEAQCS9SQPdKORYVTR0aHCvZMJAt5kzNkdbihsi/nF2+P27X964NfVkfcNsrhrim81Wm2+u2tqPKiOzXonJ55IJAFAeEYdO1FEe0b1G9k3RgOwkVUTomltrbcWOov0l+fuLKY3Av3CGq7lhuNzN25WZ009u7yAyAYCew7RVdLtS1j2iB8wdG5HLp9pKSsvWP/XH53MojsD7CIdnqL6mr5pqN8hxWggEACiPiBPH6yiP6H6zxmQrJcEdKQ/HNvlat/z2hb81rtuyY144HE7iCgEfKEGBwFzVVbXJ17xRkkMkANC9mLaKblde1yHHWrmMIQx0mySvS3POydHLBTU9+jgCodD+V9/cFiqrOsmZdsCZ6au21r5q9+1XRnZICUkTiQQAKI+IUf6Qo4oGvwbmMNiC7nXJ+Fy9uqdWIaf7d/y11lYXHDxUvKNw/2wry6wP4Ox/qM5RU72V27NFmTmD5fbkEQoAdC1uYNAjjp5sIwR0u6xUr2aMyOrubxuoqKnd8PSfX0jdXrhvDsUR6FRG4dBM1Z/MVlP9elnLuggAoDwi1pRQHtFDLpvUS901YdrX1r79dy+tq37h9U1zg8FQGukDXSZFgY55qqtqVFvrZkkcKAwAXYBpq+gRjDyip+TlJOmcvDTtK2/tsu8RDoePrt++u+HIibIZJA50I2v7y9fcX22tBcrMSZI3YQyhAADlEVGuqtGv9kBYyZGz+yXiyBWTe3dNebRq2Hvk6J4tuwtnW6vhJA30VIl0Jqux1pHHu1mZuaPlcvUmFAA4e0xbRc/8XrdSSQ1LU9AzxualaUz/1M78ksGauoaNv/7LS/bNXYVzrRWfigCRcI8TCs5WXXWCWhrWS/ITCQBQHhGlSqqZuoqe84kZ/Trl67T7/bv+9Mobx/786vo57X5/DskCkcZmqqN9nmorKtXRtp08AODMMW0VPeYw6x7Rg0b2TdG4s1j7GHbssW35RZVFh49wXiMQFR1SQ9XSOFS+5l3KzM2QxzuSUACA8ohoKY9VPjmOlctlCAM94lMz+ml/+eHT25bR2qZDJ8q2b9yePyfshIeSIhBlHGeaGmqC8ng3KjN3vFwuZgwAwCli2ip6jD/oqLSugyDQY4b0TtbEwemnfMtZ39S8+dm/rg288dbOS8NOOJEEgajlVSg4R3XVRr6mDZLCRAIAH4yRR/So4kqfhvROJgj0mKvO7as9J1red/Sxwx8oeHnTW0kn6+pmkxgQS2y22nxz1eY7qvScBiUlTScTAKA8IlLLY5VPH57UiyDQYwbnJuv8UVnaeqjxP28rrSp3FO07mn+geJasmF8NxK7haqmX2tzblZnbT27PICIBAMojIsyhKp+slQy35ehBn57RT7uPNcsfdP7xr9pKSsu2v7F993mhUJjRRiBehMMzVH8yoISEDUrPmSaXK41QAOD/sOYRParNH1Z5Pese0bOyUr26YnJvSbJNvtYtv33plYZ1W3bMC4XCzKkG4k+CAoG5qqv2yde8UZJDJABAeUSEOFjZSgjocZdN7GWLi/ce/N0L62a2tPjySASId7av2lrn5AQaD31m+sBj5AEAlEdEgDM9Zw/oTF6Pyyy7ctJYkgDwTt/74pwxv/+vy4du+e4VTZMHZZ0kEQCUR6AHFVf4FApbgkCPu2buOM2bNIQgAEiSJgzto5uuOleSdMHYvMztd3+yzzOLZpZnpySw3gIA5RHoCf6Qo6Mn2wgCEeEXyy6X18NbIxDvjJFW3PpRedz/937g9bh13cXj8op//pmEO64Ye9jFbm8AKI9A99tXxtRVRIZJw/vq9mtmEQQQ57784cmaPf7dT+zolZniuvdLs0cW/eSq9svG9S0lLQCUR6Ab7WfdIyLId6+bq3MGc/4oEK96Zabop0su/cA/d87gXskv3/XxQev/+7L6Eb3TGkgOAOUR6AbHa9vl84cJAhEh0evWils/xvmjQJx65KtXqHdmyin/+bkTB+UU3feZrJVfnlGanuwJkCAAyiPQhRxrGX1ERJk7cbCWfGwaQQBx5qqZo/XZC8ef9t9LSvCYJZdPGnTwvs+4lswdfoQPnwBQHoEutKe0hRAQUX66+FIN7J1BEECcyEhJ1KNf+8hZfY3+OWmelTdcNKLg7it980b1KidVAJRHoAsUnWiRYzmyA5F1I/nYzR8hCCBOPLTs8k77wGji0D6pry2/Ku+5m2ZX9ctM4tNRAJRHoDO1dIR07GQ7QSCiXHnBaC39ONNXgVj3ydlj9JXLJnfuTZYxuvpDY/sdeXB+2i++MO14otfN4n4AlEegsxSe4MNZRJ77b7hMYwex+yoQq/pkpWrlrR/rsq+fkug1X/v41CEH7v1U+PrZw46TOADKI9Ap5bGZEBBxUhK9eva/P6kEj5swgBhjjPTkN65Un6zULv9eQ/tlJjy57OIhW777keYpgzOrSR8A5RE4C2X1HaprDRIEIs60Uf31w69cSBBAjPnaJ8/Tx84f1a3f84KxAzK2/ehTfZ9edH5Zdoq3jasAgPIInCFGHxGpvjF/pi6eMpQggBgxfVR//XTxpT3yvb0et7508YSBh+6/JumbV4w94nYZdowDQHkETlf+McojIvQN0xg9fccnumV6G4CulZGSqP+56zNK9PbsdPTcjGTXPV+aPWLPj6/yXzG+bwlXBgDlETgNByt8aukIEQQi0sDeGfrtnZ+Wx83bJxDNHr/loxoxIDtiHs85g3slvXTnx4et/+/L6kf2Tq3jCgGgPAKnwLFWhcfZdRWR66IpQ/WThRcTBBClvvbJGfrCxRMi8rHNnTgop/Cnn8l95AvTjqckuDu4WgAoj8AH2FXSRAiIaP919UzNnzeOIIAoM3v8IP1s6Ycj+jEmJ3q17ONThxx94Brv1y4eedgYrhsAyiPwnvaVt6rNz1nKiFzGSE/815UaP7Q3YQBRYlDvDP1x+TVRc+xO3+xU9y8WzRtZcPeVbReO6VXKFQRAeQTeRdixKixl6ioiW1pygv60fL4yUxMJA4hwSQke/eF710TlhlcTh/ZJee27Vw3635vnnRyQmdTA1QRAeQT+DVNXEQ1G5eXoN99mAx0gkv1jpsCMMQOi+DkYXXXByD4Hfn5N1k8+M+logsfFznIAKI/AP+wtbVFbgKmriHwfPW+kHr/lowQBRKjlX5oXsRvknK70lATzrc/MGH7wvk/bhbOHHuHqAuhO7ulX3ricGBCJHCv1zUrU4NxkwkDEmzaqv3wdQb25r4wwgAjy2QvH6xfLrlCsbTqTlZbkvuq84TlXjO/XvOtobX1Vc0c6VxtAV2PkERFt2+FGQkDUuHfxJbp67jkEAUSIORMH6+k7PqFY3q30grEDMt66+5P9n154fnlOireVqw6A8oi4daCiVY2+IEEgOt5QjdGvvvlJzRo/kDCAHjZ+aG/9+fvzleh1x/xz9Xrc+tIlE/IOPzg/9ftXjTvidhnWfACgPCL+WCvtOMrGOYgeSQke/fn7n9WovBzCAHrI0L5ZevknX1ROenwte8hOSzLf/dzMEXt+fGXooxP6HuWVAIDyiLiz7UgjISCq9M5M0av3XaehfbMIA+hmvTJT9NJPPq+8XvG7BPCcwb0TX/j2x4e//q1LG0f1Sa3mVQGA8oi4caymXdVNfoJAVBnUO0N/u/eL6peTRhhAN8lMTdTan3xBYwf1IgxJF04aklX406v7PvrFacdTEzw+EgFAeURc2HqokRAQdUbl5eiVe7+o3Ax2DAa6WkqiV3/54ec0fVR/wniHpASPbvrY1CFHHrg66Y4rxh5xGWNJBQDlETFtc3GDHMvvO0SfCUP7aN1Pr1V2WhJhAF0kOdGj53/0Oc2dOJgw3kPf7FT3vV+aPWL3jz7ecdGYXiUkAoDyiJjV6Atqfzk7kCM6TRnRT3/90eeUmuQlDKCTJSV49L/f/6wumjKUME7BpGF9ktd996phf1g25+SAzKQ6EgFAeURMevNgAyEgas0eP0hrf/JFZaYmEgbQSVISvfrfH3xWH54+nDBO5+bPGH169ug+B++/JueeT088mpjgZmMBAJRHxJbdx5rl6+DoKkSvD00YpNfuu069MlMIAzhLqUle/fVHn9NlFMczlpacYL559XnDD9z7Kdei2UOLSQQA5RExI+RYbTvaSBCIatNG9deG+7+sAbnphAGcoay0JL1y77W6mKmqnWJo30zv6mWXjN7ynY+0TB+ceYJEAFAeEROYuopYcM7gXnrj51/S4D6ZhAGcpr7ZqXr9Z9dp5riBhNHJLjhnQPrWuz89+OmF51XkpHr5hQuA8ojodry2Xcdr2gkCUW9UXo423P9ljRyQQxjAKRoxIFubH7xeU0b0I4wu4nG79KVLJg44dP81Wd/+6NjDbpcJkQoAyiOi1vr9bA6H2DCkb6a2PrxAH5owiDCADzBxWB9tuP/LGjEgmzC6QU56srn72tkjD9z7KXv1tAGHSAQA5RFRaduRJrUF2DgHsSE3I1kv3/NFffpDYwkDeA8fnj5cmx+8nrXCPWBkXrb3uW98ZNTa/7qoYVTvlEoSAeKbe/qVNy4nBkSTsGOVlerVsD7sWInY4PW4NX/eeBlj9EbBcQIB3mHRR6bqN//9aSUnegijJ0vkgOzkpR8elz46N7H8tX3VLn/ISSAVgPIIRIW6loAuHJ8rQxSIEcZIF04eorxe6Xpp+xE51hIK4vsGxWX0k4WX6N7Fl8jt4t0+Mq6JS5OH9cn4ypyRHk84dHjL0fpsK34VA5RHIMK1doQ1ZkCaeqXzwSdiy/RR/TV1ZD89/9YhBYJMz0Z8Sk9J0HPfuUYLrphCGBEoLTnBXDplcO5VU/p3HCitO3G8vp2dv4A4wZpHRK31+9g4B7HpygtG662HF2rsoF6EgbgzemCutjy0QB+/YBRhRLipI/olv/b9T47447I5NXmZSdUkAlAegYi161iz6n1BgkBMOmdwL217ZKGunnsOYSBufPS8kXrr4QUaP7Q3YUTLjaQx+tTs0b0PPnBN3198furxJI+rg1SA2MW0VUQtayWP2+icvDTCQExK9Lp1zdxxyklP1rpdJayDRMwyRvrmZ2fpiW9cqeREL4FEoQSPW+eP6Z+1YO5IEwr4j7xVUp8j1kMCsfd+vXhVIXcjiFqpiW7d+4WxSvAwiI7Ytm5XiT7/4z+qtqmNMBBT+mSl6plvfkKXnzuCMGLIm/vKW776zJt1u080DyUNIHYw8oioFgxbZaclaGjvZMJATBveP1ufu3C8dh2q1PGTTQSCmHDJ1GH6271f1JQR/QgjxgzqnZG48KJzskbnJFVuOHgy0B4Mc74WQHkEet7JpoAuGpcrw+QYxLjM1CR95bIpyklP1mu7jynsMHEEUXrz4TL63nXztPrrH1dGSiKBxCiXy2jS8D7pSy4ek5xiwkc2HalLdRzLgZ0A5RHoOT5/WCP6pKhPJjcgiH3GSOefk6ePnDdS6wuPq665nVAQVYb1y9Kfv/9ZfenDk+TiU7+4kJTgMfMmDMr5wnlDbXV985G9lS25pAJQHoEe09oR1gWjsggCcWNAbrquv3yyqht82n24ikAQ8YyRbvj4dP35+5/VyDyOBYxHORnJ7mtmjcydPSy7cduhk9V1bUF+cQOUR6D71TYHNGVopjJTmA2D+JHgdesTs8Zo4rA+Wl94XL4Ojq5BZBqQm67f3XW1bv30+UrwuAkkzo3on5206JKxWQPT3aUbDp50BcKWqUMA5RHoXu0BR9OHZRIE4s64Ib216CNT1dDaoV2HKwkEEcMY6UsfnqQ/f/+zmjS8D4Hgnzxul84d1T9zwbxRXnc4cHjL0fosy/njQOS/r3NUB2KFyxj94JpRrH1EXNuw54QW3/+8isvqCAM9anj/bK289WO6dNowwsAHKjp2suPrz2wte+VAzUjSACIXI4+IGVZS2LGaNDiDMBC3hvTN1MKPTJE/ENK2A+WyfDyIbpbgceuOz87S/9z5GY0ZxL4oODV9slI9184dkzNlQFrtm8UnG5s7QumkAkQeRh4RU7xuo598fqwykln7COw8VKmvPvyStu4vJwx0i0unDdPDX71CYwf1Igycsdb2gFa8mF9y15+LevvDNo1EgMjByCNiimPfPj/snDx+1wADctO18IqpGj+0t7YdrFCTz08o6LLX2qM3f0Q/W/ph9crkLHicnQSvW7PG5WUvmDfKHfZ3HHqrpCFHEue6ABGAkUfEnOQEt37yuTFKSWRHP+AffB1B3fPbzfr577eo3R8iEHSKtOQE3T5/pv7r6plKTfISCLrE5r1lvlue3lqxs6xpFGkAlEeg0105rY+unN6XIID/3959h1dZH/wf/3xP9iAhQWQoiIqAAiJLZYpMraX2adWOR2tbVx9tIbauCgmHrdUq2PanWLUqzqLiAMJIIARC2HuPsAnZJGTnnPv7+8MurYORccb7dV3P1ccBOed9H8P55Jz7Pl9yrKBM4/62TLPTtnI+JM6ZyxjdOby7nrp3mNok8k4PNDzHWs1bvb/g/jdWe/PKaltTBGA8AvUmOjxE037SWdHhvPoIfJXsnceU/HqG0jcdJAbO/EmDkUZf30lTf3mjunXgozfQ+ErKq+2MjzccmLZwz8Uex0ZSBGA8AvVidO9WGt2LJzfAN8nacVQpr2do6eZDxMA3Gt7rUk375VD17dyWGGhy+0+UeFLeXbP33Q3Hr6IGwHgEzlt0eIim/6Szonj1EfhWizfkKOX1DK3ZzZVZ8UXDel6qiXffoAFd2xEDPmfJxoOlY95cU7w7v4IPFAUYj8D5ubV3K93Cq4/AGZu3ep+efj9LK7cfJUYQcxmj7/XvpN//eKCu7cIrjfBtNXVevb5k27HH5myJKqvx8OGiAOMRODfREZ9feZVXH4Gzs3rXcT07J1tzV+6Ww5V1gkZ4aIh+fGNXPf6j/rrqkpYEgV/JK6lwnv5w3d4Zy/ZfZq0JpwjAeATO2i29LtStXHkVOCcHT57SzI/W6JXUTaqoriNIgIqPidDPR/bQ727vp3Yt4wgCv7btYH7NI2+tyVm8K/9KagCMR+CsRIS5NO1HndUsKpQYwDkqKqvSrPkb9Nf5m3Qo7xRBAsTVl7XSr2/tozuHXa2oCL5HInBYK328ak9x0tvrTh85VXMJRQDGI3DGhnZroR/347wd4Hw51mrppkOanbZVczJ3qqrGQxQ/ExkeqtHXd9L9t/TS8F5cYwSBrbKmTq8u3nr4sTlbE6o9Di+rA4xH4NuFhhhNvr2TWjTjFAigvuSfqtAbi7fqldRN2nusiCA+7rouF+nukT30v8O6KS46giAIKofzSp1Jf1+7+7XsI50lcSEEgPEIfLP+nRL08xsuJgRQz6z9/PMi38/YoQ9W7NLJ4nKi+IjL2iTozmHd9b/DuqnTxVyEEli141hl0uzsY+uOlHWiBsB4BL6WyxhN+OEVapPAT9yBhuJ1rDK3Htb7y3fowxW7VVhaSZRGdkmreP1gYBfdNugq9bvqYhlDE+DL36fey9iR//C7GzwFFR7OaQEYj8BX63FJnB4ayXnzQGPweB0t3XxIH2TuUuq6/TpWUEaUBtKl3QX6/oDO+uGgK9WnUxuCAGfgVHm1nfHJhgNTU/e08Tg2hiIA4xGP9K8DAABFmUlEQVT4Lw9/51JdeVEsIYBGlpNbonmr9+mz1Xu1YtsR1dR5iXKOIsNDNbBbOw3vdZm+16+Trmx/AVGAc7T/RIkn5d01e9/dcPxKSbxWDzAegX9rf0GUxn2/I2/lAprQ6cpapW3K0aL1B7Ri21HtOlIgy59GXys0xKW+ndtqSI9LNKRHBw3q1p6P1gDqWdrGnNNjZ6/N3ZlXwfmQAOMR+Ldf3HCx+nVKIATgI4pPV2nVjmPK2nFUK7cf0fq9uaquDd6PAYmLjtC1Xdqq31UXq/9V7TSwWzvFRnG1aKCh1dR59caSbccfnbM5vKzG25IiAOMRUEJMmCbf0UnhoS5iAD6o1uPV+j252rg/V1tz8rU1J087DheovKo2IIfi1ZddqB6XtVLPjq113ZUX6apLWsrF2yOAJpNXUmGf+Wjt3ueXHuzgWMuV9gDGI4Ldrb1b6ZZeFxIC8BOOtTqYe0pbcvK07WC+dhwq0MGTJTp48pSKyqp8/vYnNotSp4sT1aXdBercroU6t2uhHpe10qWtE3gbPeCjNu8/WfvYW9l7l+wt7kYNgPGIIBYR5tKUOzorPprzhgB/V1ZZo0MnT+ngyVM6lFeqg7klOl50WkVlVSosrVRRWZWKyiob5CI9LmPUsnm0WsbH6IL4KLVJbKaLLmimdi3jdEmreLVrGaf2F8brgvhoDhTgh6yVPs3eUzL2rbWnDp+qvZQiYDwCwfiHgXSqe2tzcszobl2oAQSH8qrafw3Jiuo61dR5Za3VqYpqSVJ1rUdVNV881zI6MkwRYSGSpPiYSMVGhismKkzNosLVPDZSCbFRvHIIBIGK6jrdNnXuloX7T10sE9KCIghGvOSCYOQUl5Zlpy5f1bmqprrLNR3iNLh7e6oAQSA2KlyxUeG6pFU8MQCcldzi08rYeKCHajynFBOTqZj4/jyXRrDhaiEIKlU11Zs/Ts/c/+GipQMqq6svsFb69Z9S5fE6xAEAAF9r7F8WfX4VaKPmqqwYrIKTR1RTuZ4yYDwCAcZae2Ldtp1Zb32y8JqCouIvfH7TtoP5+uuCTUQCAABf6cMVu7Rg7f4v/V3nMpWd6qPivHXyeI5QCcGAcx4R6CoOHj22ftnaTdd5vd7Ir/uXEmIjtff1h7igBQAA+ILKmjp1veclHco79U3/Wp3Cw7PVLLGnXK5mVEOg4pVHBCpbWlGe/d78xaVp2etv+KbhKEkl5dUa//oyqgEAgC+Y/NaKbxuOkhSm2trBKjpZqYqyFZK8lEMg4iRfBJw6j2dn2qq13mMn8/udza/76/xNuntED/W76mIiAgAA7TterOc/XH02v6SVKstbqapil+IS6xQecTUVEUh45REBw1qbt3n33hVvfDS/y7GT+d3P9tc71uqBGfNV5+HiOQAAQBrzl4Xn9vmw1l6p0qLuKs7PltdznJJgPAK+o/ZEQWHmGx/Pj1m3decgK3vOj+ttB/M146M1FAUAIMj9fflOLVx34Hx+CyOvp5+K8xNUWrxc1lZRFf6OC+bAr1VUVq2bn7GydWl5Rbv6+j1jIsO0/ZVfqUOr5gQGACAIlVbUqOu9L+p44el6fNZtchXdLEfRsf0lGSrDH3HOI/ySx+vZvWz1htOHjuf2rfdBWl2n/5u5QKnTfkpoAACC0KMvp9XvcJQka9uooqyNKk/vUHyiFBbRldJgPAINyapkx4Gcbdmbtg6wViEN9WUWrjugDzJ36bbBV9IcAIAgkrHlsF5J3diAz2VsV50qchQalqX4Fp3kcrWkOvwF5zzCX9SdLCpc+san851VG7cObsjh+E9j/rJQJeXVlAcAIEhU1tTpvufmyTb8SV0ueeoGqOhktEqLl0uqoT4Yj0A9qKqp2Th3Scbhz9JXDq2tqWvRWF83t7hcD7+4mAMAAECQmPDGcu0/UdyYXzJGtdU3qPBErqrKszkC8HW8bRU+y+t1Dq3cuLlg78EjfZvqNryxeIv+Z0Bn3dq/MwcEAIAAtmn/yaa74rpVB5WXdVBl+UbFJ8YpNLwjRwSMR+CMvoHa0j2HjmzO2rD1eq/j7dDUN+fBF1I1+OpLlBAbybEBACAAebyO7vnjZ/J4m/iznh2nl0oK6xQatkLxLbrK5Urk6MCX8LZV+BKnuLQs6+3PFtZmrtt0g9fxRvjCjTpRdFqPvZzG0QEAIEBNe3elNu0/6Ss3J0yeukEqyjOqKM2U5OUIwVfwOY/wCTU1NZsXrlgTlV9c7JPvDzVGWjT9fzWi92UcLAAAAsjOwwXq9X9/VU2dz260HDVLLFFkZG+OFpoab1tFk7JWueu378zZvHtvf1nf/cBca6X7np+nrS8/oLjoCA4cAAABoNbj1V1Pf+LLw1GSLtPpYqkyZJ3iE1srJKwdRw5NhbetoqlUHjx6bPnf5n7WfPOuvQN8eTj+0+G8Uo35yyKOHAAAAcL95nJt3JfrHzfW6+2r4oJWKi3MlOOUc/TAeEQwsKUV5dnvpS4pSctef4PX443ypxv/xuItmpO5k6MIAICfy9pxVH94f5W/3exw1dYOVlFehSrKVkhyOJJoTLxtFY3G4/HsWrJqnefYybx+/nw/HnwhVYO6tVfrxFgOKgAAfqiiuk4//8On8jr+eukP20qV5a1UVbFLcYkehUd056iiMfDKIxr+25ts3ubde1e8/tH8zsdO5vn9N7fC0kr9/JlPZbnUFAAAfmnMXxZq/4niAHiSZa9UaVE3Fedny/Ge4MiC8Qh/VnuioDDzzY8WRK/bunOQlQ2Yx9ui9Qf01wUbOcIAAPiZT1bt0WsLNwfSXTLyevqpKK+5SouXy9pqjjIa7MHGR3WgIVRUVq2bvzyrdenp8oC9IlhsVLg2/L971eniFhxwAAD8QF5Jhbrf95IKSisD+W6eUEzcQUXHDuCIo77xyiPqlddxcpatXr/+nXmL+gbycJSk8qpa/WTaXF+/vDcAANDnH7t173OfBfpwlKS2qigboKKTm+Wt3cuRB+MRPvgdWSU79udkvv7hZ+33HznWJ1ju9sZ9ufr9q+kcfwAAfNwLH6/VvNX7gucOO841Ki7sqJKCLDlOIY8AMB7hCzwFRSUr3vo01a7auHWwY23QXcF3xkdr9Gk2P9gDAMBXrd+bq8f/mhacz/U9dQNUlBem0yXLJVvLowHng3Mecc6qamo2LczMji0sOXVFsLdoGR+tzbPuV9sWzXhgAADgQ05X1qrPQ69o77EiYhgdUmzzAkVG9yUGzgWvPOKseR17KHvjtuy3PkntyXD8XEFppX46ba4ff14UAACB6Vcz5zMc/8mqg06f6quikxvlqdtPEDAe0YDfb2zFwaPHlr/x0bw22/cf6EeRL1q+9bCmvrOCEAAA+Ij/9+l6vbN0OyG+zHF6qaTgEpUWZso6ZQTBmeJtqzijbzHFpWXZqcuzOlVW17Qkx9dzGaMF036iUX0uJwYAAE1o28F8XfebV1VV4yHGN64BFSsqZrti4gdICiEIGI84Z7V1nh1pq9bY43kF3ahxZhKbRWnji/fpklbxxAAAoAmUV9Wq70OvavdRLjJ65qvAtVtxzWsUHtmDGPg6vG0VX8la5a7btjPrjY/nXcVwPDvFp6v00+kfqc7jEAMAgCZw//PzGY5n/eTP6aLS4h4qzlsnr+coQcB4xJmoPJp7cvkbc+fFbd61d4CsDEnO3qodx/T4K2mEAACgkc2cu1bvLuM8x3Pm9fZVcf4FKi1aLscpJwgYj/hKFZVV695bkFa8cMXqG+o8nhiKnJ8ZH63RB5m7CAEAQCNZvvWwHn15CSHOX5Rqa25QUV6FKsuzJHGaGyRJoSRAndezO33VupqjuXl85k89slb6xbOfqkv7FurW4UKCAADQgI4WlOmOyR9y2kj9PptppYqyVqos36m4BEfhEZzKFOR45TGox40p2rE/J/ONj+ZdcTQ3j5OjG0B5Va2+l/y+isqqiAEAQAOprvXohxPnKP9UBTEa5Emjc5VKi7qqpCBLXm8+QRiPCC51JwoKM9+c+1nYqo1bB1vLZZkb0sGTp/STaR/J6/CODwAAGsJDf0rVuj0nCNGwjDx1A1ScF6PS4uWytpokjEcEuKqamo0fLl56dP6ylYNrPZ44ijSOJRty9ORrSwkBAEA9mzl3rV5buJkQjSdGtdU3qCg3X1Xl2eQILpzzGCQcxzmYuXZT4b4jRzmvsYn84f1VuubyVvrJjZwuAABAfcjacVSPvczVzZuEVXuVl7VXZflmxSdGKzS8E1EYj/D7/651avf+nA2rNm0b5Fh7KUWa1r1/nKcu7S5Qz46tiQEAwHk4kl+qH7jnqNbjJUZTcpxrVFLoKDQsS80Tu8iEtCBK4OJtq4HLU1h8KuPtTxd4V27cOsyxNpwkTa+ypk7fHf+ejhWUEQMAgHN0uvLzC9JxgRwf2hSeugEqyAvR6ZLlkq0lSWAy9728lat4BJjqmtpNC1dkxxQUl/D2AR/V64o2ynzubsVEhhEDAICz4HWs/mfC3/XZ6r3E8NmFYQ6qWUKhIiI5XSrgfkqAgOF4ncPZG7dlz/5kQU+Go2/buC9XP3v6YzmWn90AAHA2kv7fIoajr7P2UpUV91XRyY3y1B0gCOMRvqXi4NFjy1//eH6r7fsP9COHf/ho5W6N/9syQgAAcIZmfLRGf/5kHSH8heP0UklBe5UWZso6nLMTALhgjn+zxaVlqxZmZl9RUVV1Azn8z/R3s3Rp6+a67zu9iAEAwDdYsHa/Hpm1hBD+J0y1tYNVdLJYUTGZiokfIPEZ44xHNKo6j2dnWtYa51hewQBq+Ldf/2mhOrZN1I3XdCAGAABfYdP+k/rRlA/ldTjdw29ZJaqyYrCqqnYrLqFW4RFXE8X/cMEcP+NYe3LD9l0HNu/e219WhiKBIS46Qsuf+5muuZyP8AAA4D+dKDqt63/zmo5ypfLAEhKyTvEt2igk9GJi+A/OefQfVUdzTy5/8+P5sZt37R3AcAwsZZU1+u749/iDEQCA/1BaUaNbxvHnY0DyevuqOD9RpUXLZS2fucJ4RH2pqKxa9/cFSwoXrlh9Q12dJ5Yigel44Wnd9Pt3VFJeTQwAQNCr9Xh126Q52nzgJDECV7Rqa25QYe5pVZZnSeIdkT6Ot636ME+ds3vp6jU1h3PzelAjeAzu3l6LnvpfRYZzSjIAIDh5HasfTflQH67YRYxg4jI71KyFVXh4N2L46CEige+xUvGO/TmZr3/86RUMx+CTue2I7v7DJ3wGJAAgOJ8HWelXM+YzHIORY7uqtPAqlRRkyevNJ4jv4aUN31J3oqAwe8nK1dfU1nkGkyN4/X35TkVHhOm1R74nw9mtAIAgMu5vS/VK6iZCBC+XPHUDVJxXofDI5YpPvF5SBFkYj/gPVTU1GxdmZscVlpxiNEKS9PriLWrTIlbTfjmUGACAoPCXT9dr+rtZhIAkxai2+gYV5B5WbLMTiortRxLGY9Dzep1DKzdsLth76EhfauDLpr+bpeYxkXrsR/2JAQAIaO8s3a4xf15ICHyJvUTlZZeoonyT4hNjFRZ+BU0Yj0H434Et3XPoyOaVG7b0cxynA0HwdZ54NV2JcVG69+aexAAABKQFa/fr589wvj++6bmz01OnCj0KDVuh+BZd5XIlEoXxGAyc4tKy7NTlqzpXVlffQA586/dKKz3w/Hw1iwrXj4Z0JQgAIKCkbTyo2ybNUZ3HIQa+fbt46gapKK9E0dGZionvz55hPAas6pqaTQtXrIkuKC4eQA2cDcda3fX0x4qKCNP3+nUiCAAgIGTtOKr/cf9dVTUeYuAs2ARVVgxWZVWO4uKLFRHVhyaNg895bIyHt7Un1m/fdXDzrr2MRpyX8NAQfeS+Xbdcx9v9AQD+LXvnMY36/ds6XVlLDJyfkJB1imvRSqGh7YnBePRnFQePHlu/bO2m67xebyQ5UB8iwkI0132Hbr62IzEAAH5p0/6TGvbobJWUVxMD9aVO4eHZapbYUy5XM3IwHv2JLa0oX52aseqS0xWVbcmB+hYdEaZ5U36sG6/pQAwAgF/ZkpOnoY/MVvHpKmKgIeQpOnavYuIGSHKRg/Ho02o9nl3pq9Z6jp3M704NNPSATJ3+Uw3uzjs0AAD+YdvBfA19dLYKSyuJgQZeOWaX4hI9Co/gOTnj0fdYa/O27Nm3d/3WXQOsLD/lQKOIi45Q6rSfqn/Xi4kBAPBpOw8X6MZHZiv/VAUx0GhP0RUSulrxie0VEnoRORiPvqD2REHh6sUrV/eqq/PEkgONLSYyTJ9O/rGG8hZWAICP2nzgpEY+/rYKeMURTaNS4ZHrFJdwrYyJIgfjsUlUVFatm5+R1aq0vJz3DaJJRUeE6eOJd2hE78uIAQDwKRv25WrUE2+rqIxzHNHUy8fkKrpZjqJj+0syBDm38VgrKYwUZ87r9eYsX7ep5MCRY72pAV8RERaiOSm3afT1fA4kAMA3rNx+VLeMe1dllTXEgA8tINcWxSdGKiy8MzHOSp257+WtpyTF0+IMWJXsOJCzLXvT1gHWKoQg8DXhoSF6f/wP9f0BfC8EADStjC2HNTr5PZVX8TmO8EmOQsOyFd+ik1yuluQ4IyUuSZy1fAYru6CoZMVbn6baVRu3DmY4wlfVerz60ZQP9UHmLmIAAJrMvNX7dPOT7zAc4ctc8tQNUFFeuE6XLJfEy+PfriKk9+gHfyWpBS2+WlVNzcZ5y1ZWbdy5p6fH6+UEW/g8r2P10cpdatMiVr2vaEMQAECjmpO5Uz+a8qFq67zEgD+IlMfTQVWnj8mYXQoLb0eSr5UbKjkVnC/63xzHObhiw5bjew8eHkgN+OOAfGDGfJVW1OiR2/sRBADQKN5YvEX3/PEzeR2uxwg/Y9VB5WUdVFm+Wc1aNFd4WAeifImxFSG9Rz/4PUlXUOOfDxxbuu/IsZWfpq/oVlhSwqUr4deWbMhRda1Hw3vxUAYANKwX5q7Vgy+kyrEMR/j1FmitmsoY1VavUkRUMz7a4wvrcX2oZA5J/EcuySkuLctOXZ7VqbK6Zjg5ECiefn+VSitq9JcxN8tleJcBAKC+n2tLj7+Spmf+nk0MBIoweeoGqSivRNHRmYqJHyBxzRPJHgo11h62Qf58sqaudtOizDWheUVFA3hQIBC9NG+DSsqr9cZjtyoijO99AID6Uevx6u4/fKL3lu0gBgJxLCWosmKwKity1CyxRJGRwf4xfYdDrQneVx6tVe767TtzNu/e21+WEz8R2N7P2KG8knLNdd+h5rGRBAEAnJfyqlrdNukDLVp/gBgIdJfpdLFUGbJO8YmtFRIWpBfVcR0y9728va/krA2ye15x4PDRtZkbNl/v8XAFVQSXrh1aasHUn6j9hXy8KwDg3OSVVOg7497Vxn25xECwqVVE5AbFNu8hlys6qO65sX3Mw8+tiiqPjS2TFBoEd9mWVpSvTs3Mbn/6dMVFPPYRrNq2aKb5U3+say5vTQwAwFnJyS3RTb9/R/uOFxMDQczkKTpmr2LiBkhyBcEdrlNESJyRpPtnbd1mjboF8r31eDy70rLX1R3NzbuaBzsgNY+N1Fz3HRrS4xJiAADOSNaOo/qfCX9XQWklMQBJMmaX4hI9Co/oHuD3dLPevbenS5IclzYE6r20snmbd+9d8fpH8zsxHIF/O1VerZt+/7Zmp20lBgDgW72Vvk3DHp3NcAS+MDbslSot6qbi/Gw53hMBfD83SP94idXlmI0BeBdrTxQUZr750YLodVt3DrKyXGIS+JKaOq9+9vQnSvp/i/hcLgDA1zxnlCbOztTPnv5YNXVeggD/zcjr6aeivHiVFi+XtdUBdw//8WJjqCQZa9cF0sd1lFdWZi/IXHVRaVn5YB7LwLebOXetjhWe1puP36roiDCCAAAkSdW1Ht3zx8/0ztLtxAC+XYxqq29QYW6uYuNOKCo2cD7aw2vX/2s8tjlZtO542xZlkuL8+j45Tk7m2o3F+48c68djFzg7H67YpQMnSvTZ5B/p4pZxBAGAIJdbXK5bU97Xuj0niAGcnTYqL2ujyvLNik+MVmh4Jz+/P6fkNN8o6d+fbXjvrG2fGmNH++XdsSrZcSBn2+pN2/o71obyeAXOXbuWcfpsyo/V47JWxACAILVp/0l9L+V9HSsoIwZwfhyFhmUrvkVnuVwX+OddsHP17n0/kP7jsrIuKc0P74mnoKhkxVufLnBWbdw6mOEInL+jBWUaMPZvmpO5kxgAEIQ+Wrlbgx5+neEI1A+XPHUDVJQXptMlyyVb6393wfxrJ/5rbDkuLTF+dL2MqtrajYuWr2pWUHJqEI9JoH5VVNfpR1M+1IY7cjX1l0MV4jJEAYAAZ630h7+v0pOvLuUiakD9/xcWr+qqG1RTdUixzQsUGd3Xb2664/xrPH7hGeF9L289LKm9L992r2MPZa3ffHzPocMDeBACDe+mvpfrnSd/oITYSGIAQIAqPl2ln06bq0XrDxADaAwu1xbFJTZXWLivf+D2Ib1776X/utlf+ocf+PANrzh49NjyNz6a14bhCDSehesO6NqHXtWOQwXEAIAAtPnASfV96FWGI9CYHKeHThW2VWlhpqzjw+8Rt3O+sHn/8y+MtX/3xbTFpWVZ73y2qCIte/0NXscbwaMNaFz7TxSr/9i/aW7WbmIAQACZnbZV/cf+TTm5JcQAGl+YamsHq+ikRxWlmZJ874NUjd7/4l9+YVhac99ft+VI6uALt7WuzrtjyarV9nheQTceW4APfP8w0pjvX6tn7h+hsFAXQQDAT3m8jsb/bZmefn8VMQCfeaLl2q245jUKj+zhI7coR+/e01H695VxXF96ZmiNNXOa+lY61p5ct21n1usff3YVwxHwHdZKM+eu1dBH39TxwtMEAQA/dKLotG585E2GI+BzT7ScLiot7qHivHXyeo76wC16/z+H43+Px8+n23tNeAMrDx7PTXvjo3mxm3ftHSArLvEI+KCV24/qml+9rMUbcogBAH4kbeNB9X7wFa3cfpQYgK/yevuqOP8ClRWtlHWqmnDN/tcu/Mpxdt/LW9dL6t2YN62ismrd/IysNqXl5RfziAH8Q4jLyP2zG/TkTwfKZfhZDwD4qjqPo3F/W6pn52SLT+EA/MpJxcQdUHRs/6/bbg2zG7Va793b78t/O/Rr/vVZkl5ulG9mXs/u9Ox1tUdP5PXlsQH4F69jlfx6hpZuPqS3nvi+2rZoRhQA8DFH8kv1k2kfadWOY8QA/E9rVZS1VmX5TsUlOAqPaJxT+lxm1lf97a9cr3e9uSUmstoclxTfcGNWxTv352zP3rR1gLUK4XEB+LeW8dH626Pf0y3XXUEMAPARc7N2655nP1NJeTUxAP9nFRq2SnGJVygk5MIG/DqnVO69SJ89UHlG41GS7nt5218k+2AD3Ji6EwWF2UtWrr6mts4Tx2MACBz/vBrrH+4frvBQfiYEAE2lutajJ15J18y5a4kBBJ4KhUeuV1zCdTImsgGe0L2gd+4Z+5X/6OvH4+aukmub6vG9tRXV1dkLlq9qeaq0rCPHHAhcfTq10bvjfqCObROJAQCNbPuhfP3v9I+1NSePGEBAM4cV26xAUbF96vE3dSRvV737wO6zGo+SdO+sbZ8aY0ef9y1wnIOZ6zcV7jt0lPMagSDRLDpcM/5vlH550zXEAIBG4Fir5z9co/F/W6bqWg9BgKDZkGaT4lvEKiy8Hs4dsnP17n0/+Nov9U2/9P5ZW66zxqw+5y8tndp78PCWlRu29HMcJ5wjCwSfm/pertce+Z7aJMYSAwAayOG8Uv3i2U+1bPMhYgDByaPQsGw1T7xKJqTFeSzR/nr3nuxzGo+SdN/LWzMk3XCWX9UpLi3LXrA8q3NVdc0FHEsguF3YPEYvP3yLbu3fmRgAUM/mZO7UA8/P56I4ACSrU4qJ2aqY+P76+k/W+LplmK537h3+zf/Kt3jgpS03OS6TeqZfs7q6dtPCrNUxBUXFnTh6AP7Tz0ZcrT//+mY1i+aNCABwvgpKK3X/8/P0cdYeYgD40sozB9UsoVARkWd+2qBxjdA7v0w7r/EoSfe9vDVb0vXf9O841jm8etP2gzv25wzhaAH4Ope1SdCrvxutIT0uIQYAnKOPs/bogRnzlX+qghgAvp7LtUXNWyQqJKzdtyzHVXr3ngHfui/P5Gve+9ctg4w1mV/zjysOHj22ftnaTdd5vd5IjhCAb/3GY6Rffbe3nr53OK9CAsBZKCyt1MMvLtZb6duIAeBM1Sk8PFvNEnvK5Wr2Nc/OBunde1bWy3iUpPte3vKZZL77H3/Lnio7vWJBRlbHiurqthwTAGerbYtmeinpOxp9Pe9yB4BvMydzpx56IVUFpZXEAHD2jIoVFbNdMfEDJP37A7mtPtF7937/zH6LM3T/rK1drNE2SaF1Hs/OtKy13mN5+d05CgDO1+2Dr9JLSd9RYrMoYgDAl5woOq2H/pTKuY0A6mlEunYrLqFW4RFXS/JKTg+9e/+Oeh2PkvSzP22YsWX33j5b9u7rL3t2vxYAvslFFzTTn399s74/gCuyAoD0+ec2/uWT9XrytaUqr6olCID6ZBUSkq24xHWa839JZ7w7z+pLDJvaSsa7W1JzegNoCKOv76Q//+Ymtb8wnhgAgta+48W6//l5ythymBgAGkqZQkK6aNG43DP9BSFn9dsfXFqhy4eWS/oOrQE0hL3HivTqwk2KjgxX385t5TK8yQFA8Kiq8WjK2yv002lzdSC3hCAAGpB5WEvGLzurX3HWX8Ptdmmla5Wk6wgOoCFdc3lrzUq6Rdd24ZpcAALfvNX7NOYvC3Xw5CliAGho65TQpZ/m3OFt2PEoSSMn9ZajNTrbVy4B4CyFuIwe/F4fTbp7iJrH8mlAAALPgRMlGvv/Fmn+mn3EANAYvJL6Ki1l01k/Lzu373LLcnXpkEQZcz3tATQka6W1u0/orws2KSo8VH14KyuAAFFV49G0d1fqp9PnateRQoIAaBxGM5SW8sa5/dJzNcQdqdCQdZLtxhEA0Fh6XdFGf3roJvXvejExAPgt3qIKoInsUkVsb2X/tqpxx6MkDXX3ksuVLSmc4wCgsbiM0c9H9dD0e4bqwuYxBAHgN3YfLdQjs9J4iyqAplAnqwFKT1l3rr/B+Z2zeDAjV5cONTK6kWMBoLFYSZv2n9RL8zaozuPo+isvUmiIizAAfFZRWZUmzc7U3X/4VLuP8hZVAE3xBMokKz3l/fP5Lc7/xKEh7lCFmhUS5z8CaBrtWsZp6i9v1J3DrhanQwLwJbUer176bINS3shQaUUNQQA0DWNXqfmVg8/26qr1Px4laeSUdnKcDZJacmQANJW+ndvqjw+M0KDu7YkBoElZK32wYqce/2s65zUCaGpFCnX6aKH70Hlv0Hq7SSMmDpM1i8THdwBoQsZItw++SlN/eaM6tk0kCIBGl7HlsB6ZtUQb9uUSA0BTc2TMzVqSvLg+frP6G3o5GQd12VCvpKEcIwBNacfhAr00b4OOF51Wz45tFBcdQRQADW7zgZO67/l5GvfaMuUWlxMEQNMz5vdakvxmvf129XvrrNHwyR9I+gFHCoAvCA8N0c9H9dDknw/hyqwAGsSuI4V66r0svZW2TY61BAHgKz5VWvL3JVNv35jq/9ISA55upqjaTMlew/EC4Ctio8L10Pf66MmfDuSVSAD14lDeKU1/N0uvpm6S12E0AvAp26TwQUp7orQ+f9OGuS7hCHdbWdcqSZdw3AD4kgvio/XrW/vq4R9ex4gEcE6O5Jdq6jsr9drCzfJ4HYIA8C1Gx1Tn9FOG+1j9/9YNZZj7KhnXSkkJHEEAvqZlfLR+d3s/PfS9PoqNCicIgG91rKBM09/L0isLNqnW4yUIAF9UKmmQ0lK2NcwubUjDJt4oY1Il8eN9AD6pRVyUfvP9a5X0g+sUH8O3KgD/LSe3RC/MXatZ8zequtZDEAC+qkZGo7QkZXlDfYGG/zjtoRNvlsvMZUAC8GUXxEdrzPev1UO39lFisyiCANDmAyf11Hur9EHmTs5pBODramXM7VqS/GlDfhHTKHeFAQnAT8RGheuem67R727vp3Yt4wgCBKGsHUf19HurNG/NXnHxVAAMx8YejwxIAH4mLNSln9zYTY//qL+uuqQlQYAgGY0T3liu9E0HiQGA4dik41GSRk4cLce8L4n3hAHwCy5j9L3+nfTwD6/X4O7tCQIEmKoaj95K36qZc9dqx6ECggDwJ5WSvUNpE+Y31hc0jX4XR066To4+lXQhxxuAP+nZsbV+9d3e+tmIqxUZHkoQwI+dLC7XrPkb9edP1qmwtJIgAPxNkYxu1ZKUrMb8oqZJ7upw92WSa4Gkzhx3AP6mVUKMfj6yh8b8z7Vq26IZQQA/smFfrl6Yu1bvLtuuOg+f0QjAL+XIOjcr3b23sb+wabK7fPO0lqqr+1Qy13P8AfijyPBQ/XRoN/3f6D7q06kNQQAfVedx9OGKXZo5d41W7zpOEAD+y9hVqrO3KsNd2CRfvknvfO9ZYUo4OVkyj/NIAODPel/RRvff0kv/O6y7YiLDCAL4gGMFZXp76Xb95ZN1OlpQRhAA/u5lJTi/0Rx3bZNtV5/IMGzy92Xs3yQ15zEBwJ/FRUfoxzd21a9v7avul3JqN9DYaj1efbJqj2Yv2aYFa/fx+YwAAkGZrL1f6RPeb+obYnwmySh3R3lD3pdsLx4fAALBoO7t9cubrtFtg65UbFQ4QYAGtPdYkV5J3aQ3Fm9V/qkKggAIFBvkmB9pafIBX7gxxqfSDHGHKizkIVk7VVIMjxUAgaBZdLhuH3yVfjHqGg3s1o4gQD2pqK7T3KzdejV1k5ZvPSzLi4wAAkeVZP+gBDutKd+m6tvj8Z+Guy+Tcb0kqxE8bgAEkk4Xt9DPR/bQXcO76+KWcQQBzpLXsUrbmKO307drbtZulVfVEgVAYLE2U47rfi1L3uNrN834cDWj4ZPvkvSUJC5jCCCguIxR/64X6/bBV+knQ7upZXw0UYBvsPNwgd5cslVvLtmq3OJyggAIRLmSnlBa8mzJ+OR7KYzPJxz5TIycykf/cUXWSB5TAAJNeGiIbr62o346tJtGX99JURGhRAEkHckv1TtLt+ut9G3acaiAIAACVZ2MXlSok6xUt09fGtr4TdKRU9rJsVMlexePLwCBqll0uG7t11k/HHSlRvW5nCGJoJOTW6IPV+zWhyt2ae2e45zHCCDQzZNjknzlgjiBMx7/adjEG2VcMyR7NY81AIEsKiJUw3tepttvuFLf799FzaK5YisCdzDOW71PczJ3KmvHUQYjgGCwW479rZZOSPWnG238MrXb7dJK152SnpHEB6kBCIoheVOfjvqfgZ11c9+OuoBzJOHnNu0/qY9Wfv4K464jhQQBECyKZcwk1Xn/ogy3x99uvPHr9LdMT1BN7eOSeVgSP5IHEBRcxqhnx9Ya3a+Tvnv9FerVsY2MoQt8W2VNnVbtOKZ5q/dqbtYeHckvJQqAYOKR9JrCQscr9Um/PYk7MJ5u3Di5s0Lsc5K+w+MSQLDp0Kq5vnv9Fbrluis0+Or2io4IIwp8wt5jRVqwdr8WrN2vzK2HVVPnJQqA4GO1VEZJSkvZ5u93JbB+Vj188nDJzpR0FY9SAMEoMjxUA7q204jel2lk78vU4/JWcvGyJBpJeVWtVmw7ooXrD2jBmv3af6KYKACC2X4Z+6SWTJgTKHco8J5R9J4VpsT8B2XtREnxPGYBBLOW8dEa3usyjeh9qYb06KBLWzcnCupNZU2dsrYfVcaWw1q25ZDW7Tkhj9chDIBgVyHZZxWWMF2pY2oC6Y4F7o+jh01rIZcnRVYPSQrhMQwAUpvEWA3s1l4Du7XTgG7tOF8SZ8XjdbQlJ09pGw8qbWOOVmw7wltRAeDfrGTeksf7mDLcJwPxDgb+U4bhk3pKmilpEI9nAPii1omxGty9vQZ0bafrrrxIPTu2VngoP2/D544XntbqXceUvfOY1uw+rnV7TjAWAeArV5VdKxsyVmnjVwf03QyaAzpy4mh5zQsy6sCjGwC+WmiIS53btdCAru00sFs79b6ija66pCVhgkCdx9HWg3nK2n5UG/blasO+XO04VEAYAPhmxyU9qbTk2ZIJ+E+pDa43K/V7LkqxFWNk7XhJsTzWAeDbtU6MVc+OrdXz8taf/2/H1rqsTQJvd/Vjpytrte1gvrbk5GlLzklt3HdSmw+cVJ2H8xUB4AxVSfYFeewUZbjLg+VOB+cf/UOnXCSXnS7ZO4O2AQCch/iYCF3zjzHZtUNLdetwoa5sf4HiYyKI42MO55VqS06etubkaUtOnjbvz9OB3GJZSxsAOEfzFOr8Rgvdh4Ltjgf3cBo65Vq5nBmS+vHfAACcv4tbxumq9heoa4eWuuqSlrqy/QXq2DZRrRJiiNOAauq82nus6B//V6w9x4q0+0ih9hwr0qnyagIBQP1Mp42yNknpKSuCtgAPAms0fPJdkp6W1JoeAFD/mkWH6/I2iep4UYI6tk3U5W0//98OreN1UYs4hYW6iPQtik9X6WhBmY7kl+pwXqn2HS/WnqOfD8bDeaVyeCkRABpKkYyZrOad/6w5dwT1VcMYj/808pkYOZWPSuZxSZEEAYDG4TJGrRNjdUmreLVrGaeLW8ap/YWf//+tEmJ0YfMYtUmMVWxUeEDef8daFZyqVEFphfJPVerYPwbiP4fikfzP/7e8qpYHCwA0rjoZvSgbnqK0J0rJwXj8b6PcHeUNmSbZ24kBAL4jKiJULeM/H5IXNo/RBfHRSmgWqeYxkWoeG6nmsRFqHhuphNgoNY+NUHREmOKiIxQWGtLg52J6HauyyhqVVdSovKpWFdV1KqusUWlFtSqq61ReVauC0koVllYqr6RC+acq/vXXBaUVnH8IAL4nTdYZq3T3TlIwHr/dyMlD5dgZkroTAwD8X3hoiGIiwxQdGaaIsFBJUkLsf7/RJKHZ53+vzuN84dW+6jqPqmo8//rriupa1dZ5VVXrUXWth8AAEBj2yJjfaknyAlIwHs/OEHeoQl2/lDRFEh90BgAAAASmEhnztJp7n9ccN+cJMB7Pwy3TE1Rb55bVg5JCCQIAAAAEBEcybyss5HdKfbKAHIzH+jPS3UXW9ZysbiYGAAAA4NeWyTpJSndvJQXjsQFH5MTRcszzki4nBgAAAOBXjkoar7SUN0nBeGwcvWeFKTH/QVk7SVIcQQAAAACfViHZZ+WxTynDXU0OxmPjGzW1jbxet6R7JIUQBAAAAPApVjIfyGV+p8Xjj5KD8dj0hrp7yWVmSmYgMQAAAACfsE5WY5Wekk0KxqPv+fx8yD9JuoQYAAAAQJM4Ien3SkueLRlLDsaj7xrtjlZ1yG9k7XhJsQQBAAAAGkWVZF9QVeRUZT1+mhyMR/8xxH2xQkOmSfZOWgMAAAANap5cZowWJx8kBePRf42cdJ0czZR0HTEAAACAerVJLleSFo/PJEXDcpGgESxOWaOBTn9Jd0vKIwgAAABw3opkTJISuvRlODYOXnlsbEPcsQo1j0jmCUkRBAEAAADOSp2MXpQNT1HaE6XkYDwGvhGTr5DVVMneTgwAAADgjKTJqyQtS9lBCsZjEI7IicNkXTMk240YAAAAwFfaK2t+p/TkeaRoOpzz2NSWTEiXx9tT0gOSCgkCAAAA/MspGfOEEpzuDMemxyuPvmSUO1GOa4KsHpQUShAAAAAEKUcyb8vlfUSL3fnkYDzi64x0d5Hjel7STcQAAABAkMlQiJK0KGULKRiPOOMROXG0HDND0mXEAAAAQIA7Kmm80lLeJIVvCiGBDzuQsVe9b3hJNa4iSf3FR3sAAAAg8FRKdpo89kdaOmEDOXwXrzz6i1FT28jrdUu6V1zoCAAAAP7PSuYDyfuI0txHyMF4RH0bMaWPrDND0gBiAAAAwE9343oZk6QlKVm0YDyiYf9jMxox6TZZ86yk9vQAAACAnzghaaIGOq/I7XbIwXhEYxntjlaVeUwyj0uKJAgAAAB8VK2MXlKok6xUdxk5GI9oKkPcFys0ZJpk7+SYAgAAwMfMk5yxSnPnkILxCF8xfPIQWTtDRj2IAQAAgCa2S7IPK23CIlIEBq7aGUjSkjM0yOkl6W5J+QQBAABAEyiWMUlK6NKd4RhYeOUxUA1xN1eoeUIySeLzIQEAANDwPJJek8cZpwx3ITkYj/A3w9ydZFx/lPRdYgAAAKCBpMnlPKzF7u2kYDzC3w2fPFzGzpBVV2IAAACgnuyTseO0ZMIcUjAeEUh6zwpTYv6DsnaipHiCAAAA4ByVS/aPCkuYrtQxNeRgPCJQDZvWQi5PiqwekhRCEAAAAJwhRzJvy7oeVfq4PHIwHhEsRrivkWNmypjBxAAAAMC3WCOXxmpxyhpSMB4RrEZOHC3HzJR0KTEAAADwpcVwTFbjlJY8WzKWIIxHBLt+z0UptmKMrB0nqRlBAAAAgl6lZP8kj52iDHc5OcB4xBeNcLeVdU2QdK8kF0EAAACCjpXMB3LMo1o6/jA5wHjENxs2qa9cdoas6U8MAACAoLFBciUpbfxKUoDxiLNgjUZMuk3W/FFSO3oAAAAErFxJbiV0eVVz7vCSA4xHnJuRz8TIqXxUMo9LiiQIAABAwKiT0YsKdZKV6i4jBxiPqKcROaWdHDtVsncRAwAAwO/Nk2OStDT5ACnAeETDGDbxRhnXDMleTQwAAAC/s1uO/a2WTkglBc4GV9PE2UufsEwDvT0l3S0pnyAAAAB+oUTGJMnjdGc44lzwyiPOzy3TE1RT+7hkHpYUThAAAACf45H0msJCxyv1yQJygPGIpnXj5M4Ksc9J+g4xAAAAfITVUhklKS1lGzHAeIRvGT55uGRnSrqKGAAAAE1mv4x9UksmzCEFGI/wXb1nhSkx/0FZO1FSPEEAAAAaTYVkn1VYwnSljqkhBxiP8A/DprWQy5Miq4ckhRAEAACgwVjJvCWP9zFluE+SA4xH+Keh7l5yuWZIGkQMAACA+n5Gb9fKhoxV2vjVxADjEYFh5MTR8poXZNSBGAAAAOftuKQnlZY8WzKWHGA8IrD0ey5KsRVjZO14SbEEAQAAOGtVkn1BHjtFGe5ycoDxiMA2dMpFctnpkr2TxyEAAMAZm6dQ5zda6D5ECjAeEWwj8lq5vDMlcz0xAAAAvvZp+0ZZm6T0lBW0AOMRQcwaDZ98l6SnJbWmBwAAwL8UyZjJat75z5pzh5ccYDwCkjTymRg5lY9K5glJEQQBAABBrE5GL8qGpyjtiVJygPEIfJVR7o7yhkyT7O3EAAAAQShN1hmrdPdOUoDxCJyJkZOHyrEzJHUnBgAACAJ7ZMxvtSR5ASngi1wkgM9anLxUHqeXpAckFRAEAAAEqBIZ84QSnKsZjvBlvPII/3DL9ATV1rll9aCkUIIAAIAA4Ejmbbm8j2ixO58cYDwC9Wmku4us6zlZ3UwMAADgx5bJOklKd28lBRiPQIOOyImj5ZjnJV1ODAAA4EeOShqvtJQ3SQHGI9BYes8KU2L+g7J2kqQ4ggAAAB9WIdln5bFPKcNdTQ4wHoGmMGpqG3m9bkn3SAohCAAA8CFWMh/IZX6nxeOPkgOMR8AXjJzU+/OP9jADiQEAAHzAOjmuJC0dv4oUYDwCPscajZh0m6x5RtIl9AAAAE3ghKSJGui8IrfbIQcYj4AvG+2OVnXIb2TteEmxBAEAAI2gSrIvqCpyqrIeP00OMB4BfzLEfbFCQ6ZJ9k4e7wAAoAHNk8uM0eLkg6QA4xHwZyMnXSdHMyVdRwwAAFCPT6c3y2XGavH4TFog0LlIgKCwOGWNBjr9Jd0tKY8gAADgPBXJmCQldO7DcESw4JVHBJ8h7liFmkck84SkCIIAAICzUCejF2XDU5T2RCk5wHgEgsGIyVfIaqpkbycGAAA4A2nyKknLUnaQAoxHIChH5MRhsq4Zku1GDAAA8BX2yprfKT15HinAeASC3RB3qEJdv5Q0VdIFBAEAAJJOyZinFBo/Q6ljasgBxiOAfxvlTpTjmiCrhySFEAQAgKDkSOZtubyPaLE7nxwA4xH4esMnXynZ5yWNIgYAAEElQyFK0qKULaQAGI/AmRs5cbQcM0PSZcQAACCgHZU0XmnJsyVjyQH8Nz7nEfgmiyd8pgTnShmTJKmMIAAABJxKyU6Ux+mktJQ3GY7A1+OVR+BMjXC3lXVNkHSv+MELAAD+zkrmA8n7iNLcR8gBMB6BBhiRU/rIOjMkDSAGAAB+uRvXy5gkLUnJogXAeAQa+g8doxGTbpM1z0pqTw8AAPxCriS3BjqvyO12yAEwHoHGM9odrSrzmGQelxRJEAAAfFKtjF5SqJOsVDfXMAAYj0ATGjmlnRw7VbJ3EQMAAJ8yT3LGKs2dQwqA8Qj4juGTh8jaGTLqQQwAAJrULlnzW6UnLyQFUD+4YiRQn9KSMzTI6SXpbkn5BAEAoNEVy5gkJXTpznAE6hevPAINZYi7uULNE5JJkhRBEAAAGpRH0mvyOOOU4S4kB8B4BPzPMHcnGdcfJX2XGAAANIh0uZwkLXZvJwXAeAT83/DJw2XsDFl1JQYAAPVin4wdpyUT5pACYDwCgaX3rDAl5j8oaydKiicIAADnpFyyf1RYwnSljqkhB8B4BALXsGkt5PKkyOohSSEEAQDgjDiSeVvW9ajSx+WRA2A8AsFj+KSen3+0hxlMDAAAvtEauTRWi1PWkAJgPALBa+TE0XLMTEmXEgMAgC88Wz0mq3FKS54tGUsQgPEIoN9zUYqtGCNrx0lqRhAAQJCrlOyf5LFTlOEuJwfAeATwZSPcbWVDnpLsnfw3CgAIUvPkuH6tpeMPkwJgPAL4NsMm9ZXRTEn9iAEACJKnphslM1Zp41fSAmA8Ajgr1mjEpNtkzR8ltaMHACBA5UpyK6HLq5pzh5ccAOMRwLka+UyMnMpHJfO4pEiCAAACRJ2MXlSok6xUdxk5AMYjgHobkVPaybFTJXsXMQAAfm6eHJOkpckHSAEwHgE0lGETb5RxzZDs1cQAAPiZ3XLsb7V0QiopAP/iIgHgh9InLNNAb09Jd0sqIAgAwA+UyJgkeZzuDEfAP/HKI+DvbpmeoJraxyXzsKRwggAAfIxH0msKCx2v1Cf5gSfAeATQ5G6c3Fkh9jlJ3yEGAMAnWC2VUZLSUrYRA2A8AvA1wycPl+xMSVcRAwDQRPbL2Ce1ZMIcUgCMRwC+rPesMCXmPyhrJ0qKJwgAoJFUSPZZhSVMV+qYGnIAjEcA/mLYtBZyeVJk9ZCkEIIAABqIlcxb8ngfU4b7JDkAxiMAfzXU3Usu1wxJg4gBAKjfZ5N2rRyTpPSUbGIAjEcAgWLkxNHymhdk1IEYAIDzdFzSk0pLni0ZSw6A8Qgg0PR7LkqxFWNk7XhJsQQBAJylKsm+II+dogx3OTkAxiOAQDd0ykVy2emSvZPvBQCAMzRPoc5vtNB9iBQA4xFA8I3Ia+XyzpTM9cQAAHzNU8aNsjZJ6SkraAEwHgEENWs0fPJdkp6W1JoeAIB/KJIxk9W885815w4vOQDGIwB8buQzMXIqH5XME5IiCAIAQatORi/Khqco7YlScgBgPAL4aqPcHeUNmSbZ24kBAEEnTdYZq3T3TlIAYDwCODMjJw+VY2dI6k4MAAh4e2TMb7UkeQEpAHwVFwkAfK3FyUvlcXpJekBSAUEAICCVyJgnlOBczXAE8E145RHAmblleoJq69yyelBSKEEAwO85knlbLu8jWuzOJwcAxiOA+jXS3UXW9ZysbiYGAPitZbJOktLdW0kBgPEIoIFH5MTRcszzki4nBgD4jaOSxist5U1SAGA8Amg8vWeFKTH/QVk7SVIcQQDAZ1VI9ll57FPKcFeTAwDjEUDTGDW1jbxet6R7JIUQBAB8hpXMB5L3EaW5j5ADAOMRgG8YOan35x/tYQYSAwCa3Do5riQtHb+KFAAYjwB8kDUaMek2WfOMpEvoAQCN7oSkiRrovCK32yEHAMYjAN822h2tKvOYZB6TFEUQAGhwtTJ6SZUR45X1+GlyAGA8AvAvQ9wXKzRkmmTv5HsOADSYeXKZMVqcfJAUABiPAPzbyEnXydFMSdcRAwDq7ancZhmbpCUpy2kBoKG5SACgUSxOWaOBTn9Jd0vKIwgAnJdiGZOkhM59GI4AGguvPAJofEPcsQo1j0jmCUkRBAGAM1YnoxdV50xQhvsUOQAwHgEEhxGTr5DVVMneTgwA+FZp8ipJy1J2kAIA4xFAcBo+ebik5yXbjRgA8F/2yprfKT15HikAMB4BoPesMCXk/ULSVEkXEAQAdErGPKXQ+BlKHVNDDgCMRwD4T6PciXJcE2T1kKQQggAIQo5k3pbL+4gWu/PJAYDxCADfZPjkKyX7vKRRxAAQRDIUoiQtStlCCgCMRwA4GyMnjpZjZki6jBgAAvgZ2TFZjVNa8mzJWIIA8EV8ziMA37Z4wmdKcK6UMUmSyggCIMBUSnai6pwrlJbyJsMRgC/jlUcA/mOEu62sa4Kke8UPvwD4NyuZDyTvI0pzHyEHAMYjADTIiJzSR/LOlDX9iQHAD22Q0VgtSckiBQDGIwA0OGs0YtJtsuZZSe3pAcAP5Epya6DzitxuhxwAGI8A0JhGu6NVZR6TzOOSIgkCwAfVyuglhTrJSnVz7jYAxiMANKmRU9rJsVMlexcxAPiQeZIzVmnuHFIAYDwCgC8ZPnmIrJ0hox7EANCEdsuah5WevJAUAAIFVysEEFjSkjM0yOkl6W5J+QQB0MiKZUySPE53hiOAQMMrjwAC1xB3c4WaJyTzsKRwggBoQB5Jr8njjFOGu5AcABiPAOCPhrk7ybiek3QLMQA0gHS5nCQtdm8nBQDGIwAEguGTh8vYGbLqSgwA9WCfjB2nJRPmkAIA4xEAAk3vWWFKzH9Q1k6UFE8QAOegXLJ/VFjCdKWOqSEHAMYjAASyYdNayOVJkdVDkkIIAuAMOJJ5W9b1qNLH5ZEDAOMRAILJ8Ek9P/9oDzOYGAC+wRq5NFaLU9aQAgDjEQCC2ciJo+WYmZIuJQaA/3imdExW45SWPFsyliAAGI8AAKnfc1GKrRgja8dJakYQIKhVSvZP8tgpynCXkwMAGI8A8N9GuNvKhjwl2Tv5PgkEpXlyXL/W0vGHSQEAjEcA+HbDJvWV0UxJ/YgBBMXToo2SGau08StpAQCMRwA4S9Zo+OS7JD0tqTU9gIBUKGOmqHnnP2vOHV5yAADjEQDO3chnYuRUPiqZxyVFEgQICHUyelGhTrJS3WXkAADGIwDUn+Hu9lLIFMneRQzAr82TY5K0NPkAKQCA8QgADWfYxBtlXDMkezUxAL+yR459WEsnpJICAM6OiwQAcA7SJyzTQG9PSXdLKiAI4PNKZEySPE43hiMAnBteeQSA83XL9ATV1D4umYclhRME8CkeSa8pLHS8Up/kBz0AwHgEAB9w4+TOCrHPSfoOMQAfYLVURklKS9lGDABgPAKA7xk+ebhkZ0q6ihhAk9gvY5/UkglzSAEAjEcA8G29Z4UpMf9BWTtRUjxBgEZRIdln5bFPKcNdTQ4AYDwCgP8YNq2FXJ4UWT0kKYQgQIOwknlLHu9jynCfJAcAMB4BwH8NdfeSyzVD0iBiAPVqnazGKj0lmxQAwHgEgMAxcuJoec0LMupADOC8HJf0pNKSZ0vGkgMAGI8AEHj6PRel2Ioxsna8pFiCAGelSrIvyGOnKMNdTg4AYDwCQOAbOuUiuex0yd7J92PgjMxTqPMbLXQfIgUAMB4BIBhH5LVyeWdK5npiAF9pk1yuJC0en0kKAGA8AkCQs0bDJ98l6WlJrekBSJKKZMxkNe/8Z825w0sOAGA8AgD+aeQzMXIqH5XME5IiCIIgVSejF2XDU5T2RCk5AIDxCAD4OqPcHeUNmSbZ24mBIJMm64xVunsnKQCA8QgAOFMjJg6TNc9L6k4MBLg9kv2d0ibMJwUA+CYXCQDAhy2ZkC6P00vSA5IKCIIAVCJjnlCCczXDEQB8G688AoC/GOVOlOOaIKsHJYUSBH7Okczbcnkf0WJ3PjkAgPEIAKhvI91dZF3PyepmYsBPLZN1kpTu3koKAGA8AgAafEROHC3HPC/pcmLATxyVNF5pKW+SAgAYjwCAxtR7VpgS8x+UtZMkxREEPqpCss/KY59ShruaHADAeAQANJVRU9vI63VLuldcDA2+w0rmA8n7iNLcR8gBAIxHAICvGDmptxzNlDSAGGji3bheTshYLR2/ihYAwHgEAPjmk3ajEZNukzXPSLqEHmhkJyRN1EDnFbndDjkAgPEIAPB1o93RqjKPSeYxSVEEQQOrldFLqowYr6zHT5MDABiPAAB/M8R9sUJDpkn2Tr7vo4HMk8uM0eLkg6QAAMYjAMDfjZh0g6yZIdlriIF6skuyDyttwiJSAEDg44p8ABAslqQs10Bvb0l3S8ojCM5DsYxJUkKX7gxHAAgevPIIAMFoiDtWoeYRyTwhKYIgOEN1MnpRdc4EZbhPkQMAGI8AgGAxYvIVspoq2duJgW+RJq+StCxlBykAgPEIAAhWwycPl/S8ZLsRA1+yV9b8TunJ80gBAIxHAACk3rPClJD3C0lTJV1AkKB3SsY8pdD4GUodU0MOAADjEQDwRaPciXJcE2T1kKQQggQdRzJvy7oeVfo4LqwEAGA8AgC+xfDJV0r2eUmjiBE0litEY7UoZQspAACMRwDA2Rk5cbQcM0PSZcQI2GcDx2Q1TmnJsyVjCQIAYDwCAM7N7e5wnQr5P1k7WVIzggSMSsk+o4pmTyv7t1XkAAAwHgEA9WOEu62sa4KkeyW5COK3rGQ+kGMe1dLxh8kBAGA8AgAaaERO6SN5Z8qa/sTwOxtkNFZLUrJIAQBgPAIAGoE1GjHpNlnzrKT29PB5uZLcGui8IrfbIQcAgPEIAGhco93RqjKPSeZxSZEE8Tm1MnpJoU6yUt1l5AAAMB4BAE1r5JR2cuxUyd5FDJ8xT3LGKs2dQwoAAOMRAOBbhk8eImtnyKgHMZrMblnzsNKTF5ICAFBfuFIeAKB+pSVnaJDTS9LdkvIJ0qiKZUySPE53hiMAoL7xyiMAoOEMcTdXqHlCMg9LCidIg/FIek0eZ5wy3IXkAAAwHgEA/mmYu5OM6zlJtxCj3qXL5SRpsXs7KQAAjEcAQGAYPnm4jJ0hq67EOG/7ZOw4LZkwhxQAgMYQQgIAQKPJWZaj3je8ompTJula8dEe5+KUpGQlOHfrM/c2cgAAGguvPAIAmsaAp5spuvZBWfukpDiCfKsKyf5ZEeFPa/7vS8gBAGA8AgCCyxD3BQo1j0hmrHgl8qvUSnpdISFuLRqXSw4AAOMRABDcRrovlA35hax9UFJ7gihXsm/KCfmTlo4/Tg4AAOMRAID/1HtWmBJPfl+Ofi1jBgXZn1VW0nJZ8xd5vR8rw+3hAQEAYDwCAPBtRk5pJ2t/IGtvl9Q/gP/c2inZOQqxb2mRez8HHgDAeAQA4FyNcneUJ+R2GTvyH0My3I/vTY2kVTJmkbz6QEuTD3CAAQCMRwAA6tvIZ2LkqRysEDNcjobJqKukUB++xR7JbJexS+WYJYr2ZuozdyUHEgDAeAQAoDH1ey5K0eXXyKi3rHpL6imjTpKimuDWVElmj6RNMtogazaoInqLsn9bxYECADAeAQDwOdZoyMSLFBrSUda5XMZ0lNRW0gWSvVAyF0pqeZYDs1JSoaQ8SQWSCmXscTk6IJfZL69rP1dGBQAwHgEACERD3KGKiWgmSfLWxMsjl0LkkleOQuUoJKJUklRRc5qrnwIAgtn/B2J4Rp7P3qc5AAAAJXRFWHRkYXRlOmNyZWF0ZQAyMDI1LTA2LTA1VDAyOjEwOjQ3KzAwOjAwQK8dyAAAACV0RVh0ZGF0ZTptb2RpZnkAMjAyNS0wNi0wNVQwMjoxMDo0NyswMDowMDHypXQAAAAASUVORK5CYII=;" vertex="1" parent="1">
          <mxGeometry x="750" y="90" width="26.64" height="30" as="geometry" />
        </mxCell>
        <mxCell id="o0T9aLo4qFn0XOpPlYbD-5" value="" style="sketch=0;outlineConnect=0;fontColor=#232F3E;gradientColor=none;fillColor=#232F3D;strokeColor=none;dashed=0;verticalLabelPosition=bottom;verticalAlign=top;align=center;html=1;fontSize=12;fontStyle=0;aspect=fixed;pointerEvents=1;shape=mxgraph.aws4.source_code;" vertex="1" parent="1">
          <mxGeometry x="700" y="119" width="57" height="78" as="geometry" />
        </mxCell>
        <mxCell id="o0T9aLo4qFn0XOpPlYbD-6" value="&lt;font style=&quot;font-size: 19px;&quot;&gt;Node written in Python&lt;/font&gt;" style="text;html=1;align=center;verticalAlign=middle;whiteSpace=wrap;rounded=0;" vertex="1" parent="1">
          <mxGeometry x="530" y="130" width="110" height="77" as="geometry" />
        </mxCell>
        <mxCell id="o0T9aLo4qFn0XOpPlYbD-7" value="&lt;font style=&quot;font-size: 19px;&quot;&gt;Node written in C++&lt;/font&gt;" style="text;html=1;align=center;verticalAlign=middle;whiteSpace=wrap;rounded=0;" vertex="1" parent="1">
          <mxGeometry x="776.64" y="130" width="110" height="77" as="geometry" />
        </mxCell>
      </root>
    </mxGraphModel>
  </diagram>
</mxfile>
